<?xml version="1.0" encoding="utf-8"?>
<!-- Generator: Adobe Illustrator 15.0.2, SVG Export Plug-In . SVG Version: 6.00 Build 0)  -->
<!DOCTYPE svg PUBLIC "-//W3C//DTD SVG 1.1//EN" "http://www.w3.org/Graphics/SVG/1.1/DTD/svg11.dtd">
<svg version="1.1" id="圖層_1" xmlns="http://www.w3.org/2000/svg" xmlns:xlink="http://www.w3.org/1999/xlink" x="0px" y="0px"
	 width="335.064px" height="143.014px" viewBox="0 0 335.064 143.014" enable-background="new 0 0 335.064 143.014"
	 xml:space="preserve">
<g>
	<g>
		<path fill="#3D3A39" d="M171.733,106.089c0,0.747-0.087,1.42-0.264,2.019c-0.176,0.6-0.438,1.109-0.789,1.531
			c-0.349,0.421-0.789,0.744-1.316,0.971c-0.527,0.226-1.144,0.339-1.847,0.339c-0.695,0-1.295-0.104-1.803-0.312
			c-0.505-0.207-0.924-0.507-1.255-0.902c-0.331-0.394-0.576-0.884-0.738-1.47c-0.163-0.584-0.243-1.258-0.243-2.019
			c0-0.729,0.087-1.39,0.264-1.984c0.176-0.594,0.44-1.1,0.792-1.516c0.352-0.417,0.792-0.738,1.32-0.963
			c0.528-0.227,1.145-0.34,1.848-0.34c0.68,0,1.272,0.104,1.777,0.307c0.504,0.205,0.923,0.503,1.259,0.896
			c0.334,0.392,0.584,0.877,0.75,1.455C171.651,104.679,171.733,105.342,171.733,106.089z M170.435,106.174
			c0-0.522-0.046-1.01-0.139-1.459c-0.093-0.449-0.248-0.839-0.463-1.17c-0.217-0.33-0.505-0.589-0.867-0.773
			c-0.36-0.187-0.807-0.279-1.339-0.279c-0.533,0-0.979,0.1-1.34,0.3c-0.361,0.2-0.654,0.466-0.88,0.8
			c-0.225,0.332-0.386,0.722-0.484,1.166c-0.099,0.444-0.146,0.912-0.146,1.402c0,0.542,0.045,1.041,0.136,1.498
			c0.09,0.457,0.242,0.85,0.455,1.182c0.215,0.33,0.501,0.587,0.859,0.771c0.358,0.183,0.809,0.274,1.351,0.274
			c0.536,0,0.987-0.101,1.353-0.3c0.366-0.199,0.66-0.47,0.884-0.81c0.224-0.34,0.382-0.734,0.478-1.182
			C170.388,107.147,170.435,106.674,170.435,106.174z"/>
		<path fill="#3D3A39" d="M183.172,110.635c0,0.037-0.01,0.069-0.029,0.095c-0.019,0.027-0.05,0.05-0.095,0.069
			c-0.045,0.019-0.106,0.032-0.183,0.042c-0.076,0.009-0.174,0.015-0.292,0.015c-0.11,0-0.204-0.006-0.282-0.015
			c-0.079-0.01-0.14-0.023-0.186-0.042c-0.045-0.02-0.076-0.042-0.093-0.069c-0.017-0.025-0.025-0.058-0.025-0.095v-5.631h-2.889
			v5.631c0,0.037-0.009,0.069-0.03,0.095c-0.018,0.027-0.05,0.05-0.095,0.069c-0.045,0.019-0.106,0.032-0.182,0.042
			c-0.076,0.009-0.171,0.015-0.286,0.015c-0.114,0-0.209-0.006-0.285-0.015c-0.077-0.01-0.136-0.023-0.182-0.042
			c-0.045-0.02-0.077-0.042-0.096-0.069c-0.02-0.025-0.029-0.058-0.029-0.095v-5.631h-2.883v5.631c0,0.037-0.009,0.069-0.028,0.095
			c-0.02,0.027-0.051,0.05-0.097,0.069c-0.045,0.019-0.106,0.032-0.182,0.042c-0.076,0.009-0.171,0.015-0.285,0.015
			c-0.114,0-0.209-0.006-0.285-0.015c-0.077-0.01-0.137-0.023-0.182-0.042c-0.045-0.02-0.077-0.042-0.097-0.069
			c-0.019-0.025-0.028-0.058-0.028-0.095v-5.631h-0.906c-0.077,0-0.133-0.038-0.172-0.113c-0.038-0.076-0.057-0.201-0.057-0.371
			c0-0.091,0.004-0.166,0.015-0.229c0.009-0.063,0.023-0.113,0.042-0.154c0.019-0.039,0.043-0.068,0.072-0.085
			c0.028-0.017,0.061-0.025,0.1-0.025h0.906v-0.606c0-0.442,0.042-0.821,0.128-1.139c0.085-0.314,0.214-0.576,0.385-0.78
			c0.172-0.205,0.385-0.355,0.639-0.453c0.254-0.099,0.551-0.146,0.889-0.146c0.208,0,0.392,0.018,0.549,0.054
			c0.157,0.035,0.272,0.068,0.346,0.101c0.074,0.03,0.125,0.06,0.153,0.089c0.029,0.028,0.052,0.065,0.072,0.109
			c0.019,0.046,0.032,0.102,0.039,0.164c0.008,0.065,0.011,0.143,0.011,0.232c0,0.152-0.012,0.263-0.036,0.332
			c-0.023,0.068-0.067,0.104-0.127,0.104c-0.039,0-0.083-0.011-0.133-0.032c-0.05-0.021-0.113-0.046-0.189-0.071
			c-0.076-0.025-0.163-0.05-0.259-0.072c-0.098-0.021-0.206-0.031-0.325-0.031c-0.353,0-0.6,0.122-0.743,0.364
			s-0.214,0.63-0.214,1.162v0.621h2.883v-0.691c0-0.442,0.044-0.821,0.132-1.138c0.088-0.316,0.215-0.577,0.382-0.782
			c0.167-0.204,0.375-0.355,0.625-0.454c0.249-0.097,0.536-0.146,0.86-0.146c0.104,0,0.21,0.005,0.316,0.015
			c0.107,0.009,0.203,0.024,0.286,0.043c0.083,0.02,0.156,0.039,0.22,0.061c0.065,0.021,0.109,0.044,0.132,0.067
			c0.023,0.024,0.043,0.05,0.057,0.075c0.015,0.025,0.028,0.059,0.04,0.097s0.021,0.086,0.025,0.143
			c0.004,0.057,0.007,0.126,0.007,0.206c0,0.152-0.012,0.263-0.037,0.329c-0.023,0.066-0.066,0.1-0.127,0.1
			c-0.034,0-0.072-0.009-0.115-0.025c-0.042-0.016-0.094-0.034-0.153-0.053c-0.06-0.019-0.134-0.037-0.225-0.054
			c-0.091-0.016-0.2-0.024-0.328-0.024c-0.328,0-0.562,0.12-0.703,0.363c-0.141,0.242-0.21,0.631-0.21,1.163v0.706h3.703
			c0.123,0,0.216,0.032,0.278,0.096c0.063,0.065,0.093,0.154,0.093,0.269V110.635z M183.3,102.051c0,0.133-0.01,0.244-0.032,0.335
			s-0.059,0.163-0.115,0.218c-0.055,0.055-0.128,0.094-0.22,0.117c-0.093,0.024-0.21,0.036-0.354,0.036
			c-0.138,0-0.253-0.012-0.346-0.036c-0.092-0.023-0.167-0.063-0.221-0.117c-0.055-0.055-0.094-0.127-0.118-0.218
			c-0.024-0.091-0.036-0.202-0.036-0.335c0-0.134,0.012-0.244,0.036-0.333c0.023-0.087,0.063-0.161,0.118-0.222
			c0.054-0.059,0.129-0.099,0.221-0.12c0.093-0.021,0.208-0.032,0.346-0.032c0.143,0,0.261,0.012,0.354,0.032
			c0.092,0.021,0.166,0.062,0.22,0.12c0.056,0.061,0.093,0.135,0.115,0.222C183.29,101.807,183.3,101.917,183.3,102.051z"/>
		<path fill="#3D3A39" d="M189.957,109.656c0,0.081-0.001,0.15-0.006,0.211c-0.005,0.06-0.013,0.11-0.025,0.149
			c-0.012,0.042-0.026,0.076-0.042,0.107c-0.017,0.031-0.055,0.075-0.115,0.136c-0.059,0.059-0.16,0.133-0.303,0.221
			s-0.304,0.167-0.481,0.236c-0.179,0.068-0.372,0.124-0.582,0.167c-0.21,0.043-0.426,0.064-0.65,0.064
			c-0.461,0-0.87-0.076-1.227-0.229s-0.655-0.374-0.896-0.667c-0.24-0.293-0.423-0.652-0.55-1.078
			c-0.125-0.425-0.189-0.916-0.189-1.474c0-0.632,0.078-1.176,0.232-1.63c0.155-0.454,0.367-0.826,0.635-1.116
			c0.269-0.291,0.585-0.506,0.949-0.646c0.364-0.141,0.757-0.211,1.181-0.211c0.205,0,0.403,0.019,0.596,0.057
			s0.37,0.088,0.532,0.149s0.305,0.134,0.432,0.214c0.126,0.081,0.218,0.151,0.274,0.208c0.058,0.058,0.096,0.103,0.118,0.136
			s0.039,0.071,0.054,0.118c0.014,0.044,0.023,0.096,0.029,0.151c0.004,0.058,0.007,0.129,0.007,0.215
			c0,0.187-0.021,0.316-0.065,0.389c-0.042,0.074-0.094,0.111-0.157,0.111c-0.071,0-0.153-0.039-0.247-0.117
			c-0.093-0.078-0.21-0.166-0.353-0.262c-0.143-0.095-0.316-0.182-0.518-0.26c-0.202-0.078-0.441-0.117-0.717-0.117
			c-0.566,0-1,0.217-1.302,0.652c-0.302,0.436-0.453,1.066-0.453,1.895c0,0.414,0.04,0.776,0.118,1.088
			c0.079,0.312,0.194,0.571,0.346,0.781c0.152,0.209,0.339,0.365,0.561,0.468c0.221,0.102,0.474,0.153,0.759,0.153
			c0.272,0,0.509-0.043,0.714-0.128c0.204-0.087,0.381-0.181,0.531-0.283c0.151-0.102,0.277-0.194,0.379-0.277
			c0.103-0.083,0.182-0.125,0.239-0.125c0.033,0,0.063,0.01,0.086,0.028c0.023,0.02,0.044,0.051,0.06,0.097
			c0.017,0.044,0.029,0.102,0.036,0.171C189.954,109.479,189.957,109.562,189.957,109.656z"/>
		<path fill="#3D3A39" d="M197,107.145c0,0.186-0.047,0.317-0.14,0.396c-0.093,0.078-0.2,0.117-0.319,0.117h-4.229
			c0,0.357,0.035,0.678,0.107,0.964c0.072,0.285,0.191,0.53,0.359,0.735c0.167,0.204,0.383,0.361,0.651,0.47
			c0.268,0.11,0.596,0.164,0.982,0.164c0.307,0,0.579-0.024,0.818-0.074c0.239-0.05,0.445-0.105,0.621-0.168
			c0.174-0.062,0.318-0.118,0.43-0.167c0.112-0.05,0.197-0.075,0.255-0.075c0.033,0,0.063,0.008,0.089,0.025
			c0.026,0.016,0.046,0.041,0.061,0.075c0.015,0.033,0.025,0.078,0.032,0.138c0.009,0.06,0.011,0.133,0.011,0.219
			c0,0.062-0.002,0.115-0.007,0.16s-0.011,0.085-0.019,0.121c-0.007,0.035-0.019,0.067-0.035,0.097
			c-0.016,0.027-0.038,0.056-0.064,0.082c-0.026,0.026-0.104,0.068-0.231,0.129c-0.129,0.059-0.295,0.117-0.5,0.175
			c-0.205,0.057-0.442,0.107-0.709,0.151c-0.27,0.046-0.556,0.069-0.86,0.069c-0.528,0-0.99-0.074-1.388-0.221
			c-0.397-0.148-0.731-0.367-1.002-0.657c-0.271-0.29-0.476-0.653-0.614-1.092c-0.138-0.438-0.207-0.947-0.207-1.526
			c0-0.553,0.072-1.049,0.214-1.489c0.143-0.439,0.349-0.812,0.617-1.119c0.269-0.307,0.593-0.543,0.974-0.707
			c0.38-0.164,0.806-0.246,1.276-0.246c0.504,0,0.934,0.081,1.289,0.243c0.354,0.161,0.646,0.38,0.874,0.653
			s0.396,0.595,0.503,0.963c0.107,0.369,0.161,0.762,0.161,1.182V107.145z M195.814,106.795c0.015-0.617-0.123-1.104-0.412-1.455
			s-0.72-0.528-1.289-0.528c-0.293,0-0.548,0.054-0.768,0.165c-0.221,0.108-0.405,0.254-0.554,0.435
			c-0.148,0.181-0.264,0.391-0.344,0.631c-0.082,0.241-0.127,0.492-0.136,0.753H195.814z"/>
		<path fill="#3D3A39" d="M208.066,107.352c0,0.523-0.069,1.005-0.206,1.445c-0.138,0.439-0.344,0.819-0.617,1.138
			c-0.274,0.319-0.616,0.567-1.028,0.746c-0.411,0.178-0.888,0.268-1.43,0.268c-0.527,0-0.988-0.079-1.381-0.235
			c-0.392-0.157-0.719-0.386-0.98-0.686c-0.262-0.299-0.457-0.664-0.585-1.092c-0.129-0.428-0.194-0.914-0.194-1.455
			c0-0.524,0.068-1.006,0.205-1.445c0.135-0.439,0.339-0.819,0.614-1.139c0.272-0.318,0.614-0.566,1.023-0.741
			c0.409-0.176,0.887-0.265,1.434-0.265c0.529,0,0.988,0.08,1.38,0.236c0.393,0.157,0.72,0.385,0.981,0.685s0.458,0.663,0.588,1.092
			C208.001,106.331,208.066,106.814,208.066,107.352z M206.847,107.43c0-0.347-0.032-0.676-0.098-0.984
			c-0.064-0.31-0.172-0.58-0.32-0.813c-0.149-0.233-0.351-0.418-0.605-0.553c-0.254-0.137-0.571-0.204-0.951-0.204
			c-0.35,0-0.651,0.062-0.904,0.185c-0.252,0.124-0.459,0.299-0.623,0.525c-0.163,0.225-0.284,0.493-0.363,0.803
			c-0.08,0.31-0.119,0.646-0.119,1.013c0,0.353,0.032,0.683,0.098,0.992c0.064,0.31,0.173,0.579,0.323,0.81
			c0.151,0.23,0.354,0.414,0.608,0.551c0.254,0.135,0.572,0.202,0.951,0.202c0.346,0,0.646-0.062,0.899-0.187
			c0.254-0.122,0.463-0.297,0.626-0.521c0.163-0.223,0.283-0.489,0.36-0.799C206.808,108.142,206.847,107.801,206.847,107.43z"/>
		<path fill="#3D3A39" d="M213.319,101.572c0,0.09-0.005,0.163-0.014,0.217c-0.01,0.055-0.021,0.1-0.033,0.133
			c-0.011,0.033-0.027,0.057-0.045,0.068c-0.021,0.012-0.044,0.018-0.072,0.018c-0.034,0-0.076-0.012-0.125-0.032
			c-0.049-0.022-0.11-0.046-0.182-0.071c-0.072-0.026-0.156-0.051-0.253-0.072c-0.098-0.021-0.21-0.031-0.339-0.031
			c-0.176,0-0.326,0.028-0.449,0.086c-0.124,0.057-0.223,0.146-0.3,0.267c-0.076,0.122-0.131,0.279-0.164,0.471
			c-0.034,0.193-0.05,0.428-0.05,0.703v0.699h1.435c0.038,0,0.07,0.009,0.096,0.025c0.026,0.017,0.051,0.046,0.072,0.085
			c0.021,0.041,0.038,0.092,0.049,0.154c0.013,0.063,0.018,0.138,0.018,0.229c0,0.17-0.021,0.295-0.064,0.371
			c-0.042,0.075-0.099,0.113-0.17,0.113h-1.435v5.631c0,0.037-0.01,0.069-0.028,0.095c-0.02,0.027-0.051,0.05-0.097,0.069
			c-0.045,0.019-0.105,0.032-0.182,0.042c-0.076,0.009-0.171,0.015-0.285,0.015c-0.114,0-0.209-0.006-0.286-0.015
			c-0.076-0.01-0.137-0.023-0.182-0.042c-0.045-0.02-0.077-0.042-0.096-0.069c-0.02-0.025-0.029-0.058-0.029-0.095v-5.631h-0.906
			c-0.077,0-0.133-0.038-0.172-0.113c-0.038-0.076-0.057-0.201-0.057-0.371c0-0.091,0.005-0.166,0.015-0.229
			c0.009-0.063,0.023-0.113,0.042-0.154c0.019-0.039,0.043-0.068,0.071-0.085c0.029-0.017,0.063-0.025,0.101-0.025h0.906v-0.663
			c0-0.447,0.041-0.832,0.125-1.152c0.083-0.321,0.21-0.584,0.381-0.789s0.387-0.354,0.646-0.453
			c0.26-0.098,0.565-0.146,0.917-0.146c0.167,0,0.329,0.015,0.485,0.046c0.157,0.031,0.279,0.064,0.364,0.1
			c0.085,0.036,0.143,0.068,0.171,0.097c0.03,0.028,0.053,0.065,0.072,0.11c0.019,0.046,0.032,0.101,0.039,0.164
			C213.314,101.404,213.319,101.482,213.319,101.572z"/>
		<path fill="#3D3A39" d="M220.903,110.162c0,0.139-0.01,0.248-0.029,0.329c-0.019,0.081-0.048,0.141-0.086,0.179
			c-0.039,0.038-0.095,0.073-0.171,0.107c-0.076,0.033-0.163,0.061-0.261,0.081s-0.2,0.04-0.311,0.054
			c-0.108,0.015-0.219,0.022-0.328,0.022c-0.333,0-0.618-0.045-0.856-0.134c-0.238-0.087-0.433-0.221-0.585-0.398
			c-0.152-0.179-0.263-0.404-0.332-0.679c-0.069-0.272-0.104-0.595-0.104-0.966v-3.754h-0.899c-0.071,0-0.128-0.038-0.171-0.113
			c-0.043-0.076-0.064-0.201-0.064-0.371c0-0.091,0.006-0.166,0.018-0.229s0.028-0.113,0.046-0.154
			c0.019-0.039,0.044-0.068,0.075-0.085c0.031-0.017,0.066-0.025,0.104-0.025h0.892V102.5c0-0.033,0.009-0.064,0.025-0.093
			c0.017-0.028,0.047-0.054,0.092-0.076c0.046-0.021,0.106-0.036,0.183-0.046c0.076-0.01,0.171-0.014,0.285-0.014
			c0.119,0,0.216,0.004,0.293,0.014c0.076,0.01,0.134,0.025,0.177,0.046c0.044,0.022,0.074,0.048,0.093,0.076
			c0.019,0.028,0.029,0.06,0.029,0.093v1.526h1.647c0.039,0,0.072,0.009,0.101,0.025c0.028,0.017,0.053,0.046,0.074,0.085
			c0.022,0.041,0.037,0.092,0.046,0.154s0.015,0.138,0.015,0.229c0,0.17-0.022,0.295-0.064,0.371
			c-0.044,0.075-0.101,0.113-0.173,0.113h-1.647v3.583c0,0.44,0.065,0.776,0.196,1.001c0.13,0.227,0.364,0.34,0.703,0.34
			c0.109,0,0.206-0.011,0.292-0.033c0.086-0.021,0.162-0.044,0.228-0.067s0.124-0.046,0.172-0.067
			c0.047-0.021,0.09-0.031,0.128-0.031c0.024,0,0.046,0.005,0.068,0.017c0.021,0.013,0.038,0.035,0.049,0.069
			c0.012,0.032,0.023,0.078,0.032,0.135S220.903,110.077,220.903,110.162z"/>
		<path fill="#3D3A39" d="M227.988,110.635c0,0.037-0.009,0.069-0.028,0.095c-0.019,0.027-0.05,0.05-0.093,0.069
			c-0.043,0.019-0.103,0.032-0.178,0.042c-0.077,0.009-0.172,0.015-0.286,0.015c-0.119,0-0.216-0.006-0.292-0.015
			c-0.077-0.01-0.136-0.023-0.178-0.042c-0.043-0.02-0.075-0.042-0.094-0.069c-0.019-0.025-0.028-0.058-0.028-0.095v-3.761
			c0-0.367-0.028-0.661-0.085-0.886c-0.058-0.224-0.141-0.416-0.25-0.577c-0.109-0.162-0.251-0.285-0.425-0.371
			c-0.173-0.086-0.375-0.129-0.603-0.129c-0.294,0-0.59,0.104-0.885,0.313c-0.295,0.21-0.604,0.518-0.927,0.922v4.488
			c0,0.037-0.009,0.069-0.029,0.095c-0.019,0.027-0.049,0.05-0.093,0.069c-0.042,0.019-0.102,0.032-0.178,0.042
			c-0.077,0.009-0.173,0.015-0.293,0.015c-0.113,0-0.209-0.006-0.285-0.015c-0.077-0.01-0.136-0.023-0.183-0.042
			c-0.044-0.02-0.076-0.042-0.093-0.069c-0.016-0.025-0.024-0.058-0.024-0.095v-9.533c0-0.038,0.009-0.071,0.024-0.101
			c0.017-0.028,0.048-0.052,0.093-0.071c0.046-0.019,0.106-0.033,0.183-0.043c0.076-0.009,0.172-0.014,0.285-0.014
			c0.12,0,0.216,0.005,0.293,0.014c0.076,0.01,0.136,0.024,0.178,0.043c0.044,0.02,0.074,0.043,0.093,0.071
			c0.02,0.029,0.029,0.063,0.029,0.101v3.846c0.337-0.357,0.677-0.622,1.02-0.795c0.343-0.174,0.687-0.262,1.035-0.262
			c0.428,0,0.789,0.072,1.082,0.219c0.293,0.145,0.528,0.338,0.71,0.58c0.18,0.242,0.31,0.527,0.388,0.854
			c0.078,0.325,0.118,0.719,0.118,1.182V110.635z"/>
		<path fill="#3D3A39" d="M235.617,107.145c0,0.186-0.047,0.317-0.14,0.396c-0.094,0.078-0.201,0.117-0.32,0.117h-4.229
			c0,0.357,0.036,0.678,0.107,0.964c0.072,0.285,0.192,0.53,0.359,0.735c0.167,0.204,0.384,0.361,0.652,0.47
			c0.269,0.11,0.596,0.164,0.982,0.164c0.306,0,0.578-0.024,0.817-0.074c0.24-0.05,0.446-0.105,0.621-0.168
			c0.174-0.062,0.317-0.118,0.43-0.167c0.112-0.05,0.197-0.075,0.255-0.075c0.033,0,0.063,0.008,0.089,0.025
			c0.026,0.016,0.046,0.041,0.061,0.075c0.014,0.033,0.025,0.078,0.032,0.138s0.011,0.133,0.011,0.219
			c0,0.062-0.002,0.115-0.007,0.16c-0.005,0.045-0.011,0.085-0.019,0.121c-0.007,0.035-0.019,0.067-0.035,0.097
			c-0.016,0.027-0.038,0.056-0.064,0.082c-0.026,0.026-0.104,0.068-0.231,0.129c-0.129,0.059-0.295,0.117-0.5,0.175
			c-0.205,0.057-0.442,0.107-0.71,0.151c-0.269,0.046-0.556,0.069-0.859,0.069c-0.528,0-0.991-0.074-1.388-0.221
			c-0.397-0.148-0.731-0.367-1.002-0.657c-0.271-0.29-0.477-0.653-0.615-1.092c-0.137-0.438-0.206-0.947-0.206-1.526
			c0-0.553,0.071-1.049,0.214-1.489c0.142-0.439,0.348-0.812,0.616-1.119c0.27-0.307,0.594-0.543,0.975-0.707
			c0.38-0.164,0.806-0.246,1.277-0.246c0.504,0,0.933,0.081,1.288,0.243c0.355,0.161,0.646,0.38,0.875,0.653
			c0.228,0.273,0.396,0.595,0.502,0.963c0.107,0.369,0.162,0.762,0.162,1.182V107.145z M234.432,106.795
			c0.014-0.617-0.123-1.104-0.413-1.455s-0.72-0.528-1.289-0.528c-0.293,0-0.549,0.054-0.769,0.165
			c-0.22,0.108-0.405,0.254-0.553,0.435c-0.148,0.181-0.263,0.391-0.344,0.631c-0.082,0.241-0.127,0.492-0.137,0.753H234.432z"/>
		<path fill="#3D3A39" d="M246.519,104.284c0,0.461-0.076,0.877-0.228,1.248s-0.37,0.687-0.653,0.948
			c-0.283,0.262-0.629,0.465-1.042,0.607c-0.411,0.143-0.902,0.215-1.473,0.215h-1.049v3.324c0,0.038-0.011,0.07-0.032,0.101
			c-0.022,0.027-0.055,0.05-0.101,0.067c-0.045,0.017-0.107,0.031-0.185,0.043s-0.177,0.018-0.297,0.018
			c-0.118,0-0.217-0.006-0.295-0.018c-0.079-0.012-0.143-0.026-0.189-0.043c-0.047-0.018-0.081-0.04-0.099-0.067
			c-0.02-0.03-0.029-0.063-0.029-0.101v-8.52c0-0.19,0.05-0.325,0.15-0.406s0.211-0.122,0.336-0.122h1.976
			c0.199,0,0.391,0.009,0.574,0.025s0.4,0.052,0.649,0.106c0.25,0.055,0.504,0.156,0.764,0.307c0.26,0.149,0.479,0.334,0.661,0.553
			c0.18,0.219,0.319,0.474,0.417,0.761C246.471,103.619,246.519,103.936,246.519,104.284z M245.228,104.384
			c0-0.376-0.07-0.69-0.21-0.942s-0.314-0.439-0.521-0.563c-0.207-0.123-0.421-0.202-0.642-0.235
			c-0.221-0.033-0.437-0.051-0.646-0.051h-1.134v3.704h1.106c0.371,0,0.678-0.048,0.924-0.144c0.245-0.095,0.45-0.227,0.617-0.396
			c0.167-0.168,0.292-0.371,0.378-0.605C245.186,104.916,245.228,104.66,245.228,104.384z"/>
		<path fill="#3D3A39" d="M252.013,104.633c0,0.105-0.002,0.193-0.007,0.264c-0.005,0.072-0.014,0.129-0.028,0.169
			c-0.015,0.04-0.033,0.071-0.055,0.093c-0.021,0.021-0.05,0.031-0.088,0.031c-0.039,0-0.085-0.011-0.14-0.031
			c-0.054-0.021-0.116-0.043-0.185-0.064c-0.069-0.021-0.146-0.042-0.232-0.061c-0.086-0.021-0.178-0.029-0.278-0.029
			c-0.12,0-0.236,0.024-0.35,0.071c-0.114,0.048-0.234,0.126-0.36,0.235c-0.126,0.109-0.257,0.256-0.396,0.436
			c-0.138,0.182-0.291,0.401-0.457,0.664v4.225c0,0.037-0.009,0.069-0.028,0.095c-0.02,0.027-0.05,0.05-0.093,0.069
			c-0.043,0.019-0.103,0.032-0.179,0.042c-0.076,0.009-0.173,0.015-0.292,0.015c-0.114,0-0.21-0.006-0.286-0.015
			c-0.076-0.01-0.136-0.023-0.182-0.042c-0.045-0.02-0.077-0.042-0.093-0.069c-0.017-0.025-0.025-0.058-0.025-0.095v-6.422
			c0-0.039,0.008-0.071,0.022-0.097c0.014-0.026,0.042-0.051,0.085-0.071c0.042-0.021,0.097-0.036,0.164-0.043
			c0.067-0.008,0.155-0.011,0.264-0.011c0.104,0,0.191,0.003,0.26,0.011c0.069,0.007,0.122,0.021,0.161,0.043
			c0.039,0.021,0.065,0.045,0.083,0.071c0.017,0.025,0.024,0.058,0.024,0.097v0.934c0.177-0.256,0.341-0.466,0.497-0.627
			c0.154-0.162,0.3-0.289,0.438-0.383c0.138-0.092,0.274-0.156,0.411-0.191c0.135-0.036,0.272-0.055,0.41-0.055
			c0.062,0,0.132,0.004,0.21,0.012c0.079,0.007,0.161,0.02,0.247,0.039c0.084,0.019,0.162,0.04,0.231,0.063
			c0.069,0.023,0.118,0.048,0.146,0.071c0.029,0.023,0.047,0.046,0.057,0.068c0.01,0.021,0.019,0.049,0.025,0.082
			c0.006,0.032,0.012,0.082,0.014,0.146C252.012,104.437,252.013,104.524,252.013,104.633z"/>
		<path fill="#3D3A39" d="M258.643,107.145c0,0.186-0.047,0.317-0.14,0.396c-0.094,0.078-0.201,0.117-0.32,0.117h-4.229
			c0,0.357,0.036,0.678,0.107,0.964c0.072,0.285,0.192,0.53,0.359,0.735c0.167,0.204,0.384,0.361,0.652,0.47
			c0.269,0.11,0.596,0.164,0.982,0.164c0.307,0,0.578-0.024,0.817-0.074c0.24-0.05,0.446-0.105,0.621-0.168
			c0.174-0.062,0.317-0.118,0.43-0.167c0.112-0.05,0.197-0.075,0.255-0.075c0.033,0,0.063,0.008,0.089,0.025
			c0.026,0.016,0.046,0.041,0.061,0.075c0.014,0.033,0.025,0.078,0.032,0.138c0.007,0.06,0.011,0.133,0.011,0.219
			c0,0.062-0.002,0.115-0.007,0.16c-0.005,0.045-0.011,0.085-0.019,0.121c-0.007,0.035-0.019,0.067-0.035,0.097
			c-0.016,0.027-0.038,0.056-0.064,0.082c-0.026,0.026-0.104,0.068-0.231,0.129c-0.129,0.059-0.295,0.117-0.5,0.175
			c-0.205,0.057-0.442,0.107-0.71,0.151c-0.269,0.046-0.556,0.069-0.859,0.069c-0.528,0-0.991-0.074-1.388-0.221
			c-0.397-0.148-0.731-0.367-1.002-0.657s-0.477-0.653-0.615-1.092c-0.137-0.438-0.206-0.947-0.206-1.526
			c0-0.553,0.072-1.049,0.215-1.489c0.141-0.439,0.348-0.812,0.616-1.119c0.269-0.307,0.593-0.543,0.974-0.707
			s0.806-0.246,1.277-0.246c0.504,0,0.934,0.081,1.288,0.243c0.355,0.161,0.646,0.38,0.875,0.653s0.396,0.595,0.502,0.963
			c0.107,0.369,0.162,0.762,0.162,1.182V107.145z M257.458,106.795c0.014-0.617-0.123-1.104-0.413-1.455s-0.72-0.528-1.289-0.528
			c-0.293,0-0.549,0.054-0.769,0.165c-0.22,0.108-0.405,0.254-0.553,0.435c-0.148,0.181-0.264,0.391-0.344,0.631
			c-0.082,0.241-0.127,0.492-0.137,0.753H257.458z"/>
		<path fill="#3D3A39" d="M264.465,108.887c0,0.327-0.061,0.62-0.182,0.877c-0.122,0.258-0.294,0.473-0.518,0.649
			c-0.224,0.175-0.49,0.31-0.798,0.399c-0.309,0.091-0.65,0.136-1.021,0.136c-0.228,0-0.445-0.019-0.653-0.054
			c-0.207-0.036-0.392-0.082-0.556-0.135c-0.164-0.056-0.304-0.112-0.417-0.172c-0.114-0.06-0.198-0.113-0.25-0.161
			c-0.052-0.047-0.091-0.114-0.114-0.199c-0.023-0.086-0.035-0.202-0.035-0.35c0-0.09,0.005-0.167,0.014-0.228
			c0.009-0.063,0.021-0.113,0.035-0.15c0.015-0.039,0.035-0.066,0.062-0.083c0.025-0.017,0.056-0.024,0.088-0.024
			c0.052,0,0.13,0.031,0.232,0.097c0.102,0.063,0.228,0.134,0.378,0.21s0.327,0.146,0.531,0.211c0.205,0.063,0.44,0.096,0.707,0.096
			c0.2,0,0.381-0.021,0.542-0.064s0.302-0.104,0.42-0.188c0.12-0.085,0.211-0.189,0.275-0.318s0.096-0.281,0.096-0.457
			c0-0.182-0.046-0.333-0.139-0.457c-0.092-0.123-0.215-0.232-0.367-0.328c-0.152-0.095-0.324-0.179-0.515-0.253
			c-0.19-0.073-0.386-0.151-0.588-0.232c-0.203-0.081-0.4-0.173-0.592-0.274c-0.193-0.102-0.365-0.228-0.518-0.375
			c-0.152-0.146-0.274-0.323-0.367-0.528c-0.093-0.203-0.139-0.448-0.139-0.733c0-0.254,0.048-0.494,0.146-0.725
			s0.244-0.433,0.438-0.606c0.195-0.174,0.439-0.313,0.732-0.417c0.292-0.105,0.633-0.158,1.023-0.158
			c0.172,0,0.342,0.015,0.513,0.043c0.172,0.029,0.327,0.064,0.465,0.107c0.137,0.043,0.255,0.089,0.353,0.139
			c0.098,0.051,0.172,0.095,0.221,0.133c0.05,0.038,0.083,0.071,0.101,0.099c0.016,0.029,0.028,0.062,0.035,0.097
			c0.008,0.037,0.014,0.08,0.022,0.133c0.007,0.052,0.01,0.117,0.01,0.192c0,0.081-0.003,0.151-0.01,0.21
			c-0.008,0.061-0.021,0.108-0.036,0.146c-0.017,0.038-0.037,0.066-0.061,0.082c-0.024,0.018-0.051,0.025-0.079,0.025
			c-0.043,0-0.105-0.026-0.186-0.078c-0.081-0.053-0.185-0.109-0.314-0.169c-0.128-0.059-0.279-0.115-0.453-0.166
			c-0.174-0.054-0.373-0.079-0.596-0.079c-0.2,0-0.376,0.021-0.529,0.067s-0.277,0.11-0.374,0.193
			c-0.098,0.083-0.172,0.181-0.221,0.296c-0.051,0.113-0.075,0.237-0.075,0.371c0,0.185,0.047,0.342,0.142,0.468
			c0.096,0.125,0.219,0.235,0.372,0.33c0.152,0.097,0.326,0.183,0.521,0.258c0.195,0.076,0.394,0.155,0.596,0.235
			c0.202,0.081,0.402,0.171,0.599,0.271c0.197,0.1,0.372,0.221,0.524,0.363s0.274,0.314,0.367,0.514
			C264.418,108.372,264.465,108.61,264.465,108.887z"/>
		<path fill="#3D3A39" d="M267.461,102.043c0,0.275-0.052,0.463-0.156,0.563c-0.105,0.101-0.297,0.15-0.579,0.15
			c-0.276,0-0.465-0.049-0.567-0.146c-0.102-0.097-0.153-0.282-0.153-0.554c0-0.274,0.052-0.463,0.157-0.563
			c0.104-0.1,0.296-0.15,0.578-0.15c0.276,0,0.465,0.049,0.567,0.146C267.411,101.588,267.461,101.772,267.461,102.043z
			 M267.326,110.635c0,0.037-0.009,0.069-0.028,0.095c-0.021,0.027-0.051,0.05-0.093,0.069c-0.043,0.019-0.103,0.032-0.179,0.042
			c-0.076,0.009-0.173,0.015-0.293,0.015c-0.113,0-0.209-0.006-0.285-0.015c-0.076-0.01-0.136-0.023-0.182-0.042
			c-0.045-0.02-0.077-0.042-0.093-0.069c-0.017-0.025-0.025-0.058-0.025-0.095v-6.422c0-0.035,0.009-0.065,0.025-0.093
			c0.016-0.03,0.048-0.053,0.093-0.071c0.045-0.021,0.106-0.034,0.182-0.044c0.076-0.009,0.172-0.014,0.285-0.014
			c0.12,0,0.217,0.005,0.293,0.014c0.076,0.01,0.136,0.023,0.179,0.044c0.042,0.019,0.073,0.041,0.093,0.071
			c0.019,0.027,0.028,0.058,0.028,0.093V110.635z"/>
		<path fill="#3D3A39" d="M275.003,110.635c0,0.037-0.009,0.071-0.025,0.1c-0.017,0.028-0.044,0.051-0.086,0.066
			c-0.04,0.018-0.094,0.03-0.16,0.04c-0.067,0.009-0.147,0.015-0.244,0.015c-0.099,0-0.182-0.006-0.249-0.015
			c-0.067-0.01-0.122-0.022-0.164-0.04c-0.044-0.016-0.074-0.038-0.092-0.066c-0.021-0.028-0.03-0.063-0.03-0.1v-0.851
			c-0.337,0.366-0.688,0.652-1.052,0.856c-0.363,0.204-0.762,0.308-1.194,0.308c-0.473,0-0.874-0.093-1.207-0.274
			c-0.333-0.184-0.604-0.431-0.811-0.743c-0.206-0.312-0.357-0.677-0.453-1.099c-0.095-0.42-0.143-0.864-0.143-1.331
			c0-0.552,0.06-1.05,0.179-1.495c0.119-0.444,0.294-0.822,0.527-1.138c0.233-0.313,0.522-0.555,0.867-0.724
			c0.345-0.169,0.744-0.254,1.196-0.254c0.375,0,0.72,0.082,1.031,0.246c0.311,0.164,0.619,0.405,0.923,0.725v-3.732
			c0-0.032,0.008-0.064,0.025-0.096c0.016-0.031,0.049-0.055,0.096-0.072c0.048-0.016,0.108-0.03,0.183-0.042
			c0.073-0.012,0.167-0.018,0.281-0.018c0.12,0,0.217,0.006,0.293,0.018c0.076,0.012,0.135,0.026,0.178,0.042
			c0.043,0.018,0.075,0.041,0.096,0.072s0.033,0.063,0.033,0.096V110.635z M273.818,106.117c-0.318-0.395-0.626-0.695-0.923-0.902
			c-0.297-0.207-0.608-0.311-0.932-0.311c-0.3,0-0.554,0.072-0.764,0.214c-0.209,0.144-0.379,0.331-0.51,0.563
			c-0.131,0.233-0.226,0.498-0.286,0.793c-0.06,0.295-0.089,0.595-0.089,0.898c0,0.323,0.025,0.64,0.075,0.949
			c0.05,0.309,0.137,0.584,0.261,0.823c0.123,0.241,0.287,0.434,0.492,0.578c0.205,0.146,0.461,0.218,0.771,0.218
			c0.157,0,0.308-0.021,0.454-0.063c0.145-0.043,0.293-0.114,0.445-0.214s0.312-0.23,0.478-0.39s0.343-0.355,0.528-0.588V106.117z"
			/>
		<path fill="#3D3A39" d="M282.659,107.145c0,0.186-0.047,0.317-0.139,0.396c-0.094,0.078-0.201,0.117-0.319,0.117h-4.229
			c0,0.357,0.036,0.678,0.108,0.964c0.071,0.285,0.191,0.53,0.358,0.735c0.167,0.204,0.385,0.361,0.651,0.47
			c0.269,0.11,0.596,0.164,0.983,0.164c0.306,0,0.578-0.024,0.817-0.074c0.239-0.05,0.445-0.105,0.62-0.168
			c0.174-0.062,0.318-0.118,0.43-0.167c0.112-0.05,0.197-0.075,0.255-0.075c0.033,0,0.063,0.008,0.089,0.025
			c0.026,0.016,0.046,0.041,0.061,0.075c0.015,0.033,0.025,0.078,0.032,0.138c0.008,0.06,0.011,0.133,0.011,0.219
			c0,0.062-0.002,0.115-0.007,0.16s-0.011,0.085-0.018,0.121c-0.008,0.035-0.02,0.067-0.035,0.097
			c-0.017,0.027-0.039,0.056-0.065,0.082c-0.026,0.026-0.104,0.068-0.231,0.129c-0.129,0.059-0.294,0.117-0.5,0.175
			c-0.205,0.057-0.441,0.107-0.709,0.151c-0.27,0.046-0.556,0.069-0.86,0.069c-0.528,0-0.99-0.074-1.388-0.221
			c-0.397-0.148-0.731-0.367-1.002-0.657c-0.271-0.29-0.476-0.653-0.614-1.092c-0.137-0.438-0.206-0.947-0.206-1.526
			c0-0.553,0.07-1.049,0.214-1.489c0.142-0.439,0.348-0.812,0.617-1.119c0.269-0.307,0.592-0.543,0.974-0.707
			s0.807-0.246,1.277-0.246c0.505,0,0.934,0.081,1.289,0.243c0.354,0.161,0.646,0.38,0.874,0.653s0.396,0.595,0.503,0.963
			c0.108,0.369,0.161,0.762,0.161,1.182V107.145z M281.475,106.795c0.014-0.617-0.123-1.104-0.413-1.455s-0.72-0.528-1.289-0.528
			c-0.292,0-0.548,0.054-0.768,0.165c-0.221,0.108-0.405,0.254-0.554,0.435c-0.148,0.181-0.264,0.391-0.344,0.631
			c-0.082,0.241-0.127,0.492-0.137,0.753H281.475z"/>
		<path fill="#3D3A39" d="M289.979,110.635c0,0.037-0.009,0.069-0.028,0.095c-0.02,0.027-0.05,0.05-0.093,0.069
			c-0.043,0.019-0.103,0.032-0.178,0.042c-0.077,0.009-0.172,0.015-0.285,0.015c-0.12,0-0.217-0.006-0.293-0.015
			c-0.076-0.01-0.136-0.023-0.179-0.042c-0.042-0.02-0.074-0.042-0.092-0.069c-0.02-0.025-0.029-0.058-0.029-0.095v-3.761
			c0-0.367-0.028-0.661-0.086-0.886c-0.057-0.224-0.14-0.416-0.25-0.577c-0.109-0.162-0.25-0.285-0.424-0.371
			c-0.173-0.086-0.375-0.129-0.603-0.129c-0.296,0-0.59,0.104-0.886,0.313c-0.294,0.21-0.604,0.518-0.928,0.922v4.488
			c0,0.037-0.009,0.069-0.027,0.095c-0.02,0.027-0.051,0.05-0.094,0.069c-0.042,0.019-0.102,0.032-0.178,0.042
			c-0.076,0.009-0.173,0.015-0.292,0.015c-0.115,0-0.209-0.006-0.286-0.015c-0.076-0.01-0.136-0.023-0.182-0.042
			c-0.044-0.02-0.076-0.042-0.092-0.069c-0.017-0.025-0.025-0.058-0.025-0.095v-6.422c0-0.039,0.008-0.071,0.022-0.097
			c0.014-0.026,0.043-0.051,0.086-0.071c0.042-0.021,0.098-0.036,0.164-0.043c0.066-0.008,0.154-0.011,0.263-0.011
			c0.105,0,0.191,0.003,0.26,0.011c0.069,0.007,0.123,0.021,0.162,0.043c0.038,0.021,0.065,0.045,0.082,0.071
			c0.017,0.025,0.024,0.058,0.024,0.097v0.848c0.362-0.403,0.722-0.699,1.082-0.888s0.722-0.282,1.088-0.282
			c0.428,0,0.789,0.072,1.081,0.219c0.293,0.145,0.529,0.338,0.71,0.58c0.18,0.242,0.31,0.527,0.388,0.854
			c0.079,0.325,0.118,0.718,0.118,1.174V110.635z"/>
		<path fill="#3D3A39" d="M295.333,110.162c0,0.139-0.01,0.248-0.029,0.329c-0.019,0.081-0.048,0.141-0.085,0.179
			c-0.039,0.038-0.095,0.073-0.172,0.107c-0.076,0.033-0.164,0.061-0.26,0.081c-0.098,0.021-0.201,0.04-0.311,0.054
			c-0.109,0.015-0.219,0.022-0.328,0.022c-0.333,0-0.618-0.045-0.856-0.134c-0.238-0.087-0.434-0.221-0.585-0.398
			c-0.152-0.179-0.264-0.404-0.333-0.679c-0.069-0.272-0.104-0.595-0.104-0.966v-3.754h-0.899c-0.072,0-0.128-0.038-0.171-0.113
			c-0.043-0.076-0.064-0.201-0.064-0.371c0-0.091,0.006-0.166,0.018-0.229s0.027-0.113,0.046-0.154
			c0.019-0.039,0.044-0.068,0.074-0.085c0.032-0.017,0.066-0.025,0.104-0.025h0.892V102.5c0-0.033,0.009-0.064,0.025-0.093
			c0.017-0.028,0.047-0.054,0.092-0.076c0.045-0.021,0.106-0.036,0.182-0.046c0.077-0.01,0.171-0.014,0.286-0.014
			c0.118,0,0.216,0.004,0.292,0.014c0.077,0.01,0.135,0.025,0.178,0.046c0.043,0.022,0.074,0.048,0.093,0.076
			s0.029,0.06,0.029,0.093v1.526h1.647c0.039,0,0.071,0.009,0.1,0.025c0.028,0.017,0.054,0.046,0.075,0.085
			c0.022,0.041,0.037,0.092,0.046,0.154s0.015,0.138,0.015,0.229c0,0.17-0.022,0.295-0.065,0.371
			c-0.043,0.075-0.1,0.113-0.171,0.113h-1.647v3.583c0,0.44,0.065,0.776,0.196,1.001c0.129,0.227,0.364,0.34,0.703,0.34
			c0.109,0,0.206-0.011,0.292-0.033c0.085-0.021,0.161-0.044,0.228-0.067c0.067-0.023,0.124-0.046,0.172-0.067
			c0.047-0.021,0.09-0.031,0.128-0.031c0.024,0,0.046,0.005,0.068,0.017c0.021,0.013,0.038,0.035,0.05,0.069
			c0.012,0.032,0.022,0.078,0.032,0.135S295.333,110.077,295.333,110.162z"/>
		<path fill="#3D3A39" d="M170.157,128.894c0,0.037-0.008,0.07-0.022,0.1c-0.014,0.028-0.045,0.053-0.093,0.071
			c-0.047,0.019-0.114,0.033-0.199,0.042c-0.086,0.01-0.2,0.016-0.343,0.016c-0.124,0-0.225-0.006-0.303-0.016
			c-0.079-0.009-0.141-0.024-0.189-0.046c-0.047-0.021-0.084-0.051-0.11-0.088c-0.026-0.039-0.049-0.087-0.068-0.144l-0.849-2.177
			c-0.101-0.246-0.204-0.475-0.311-0.682c-0.107-0.206-0.234-0.386-0.382-0.535c-0.147-0.15-0.322-0.266-0.52-0.349
			c-0.201-0.083-0.44-0.126-0.722-0.126h-0.82v3.933c0,0.037-0.01,0.07-0.032,0.1c-0.022,0.028-0.055,0.052-0.1,0.067
			c-0.045,0.018-0.107,0.031-0.185,0.043c-0.079,0.012-0.178,0.019-0.296,0.019s-0.217-0.007-0.296-0.019
			c-0.078-0.012-0.141-0.025-0.188-0.043c-0.048-0.016-0.081-0.039-0.1-0.067c-0.019-0.029-0.028-0.063-0.028-0.1v-8.549
			c0-0.185,0.048-0.314,0.146-0.389c0.097-0.074,0.201-0.11,0.31-0.11h1.962c0.233,0,0.427,0.006,0.581,0.018
			c0.155,0.012,0.294,0.025,0.417,0.04c0.358,0.062,0.672,0.159,0.946,0.292c0.274,0.133,0.502,0.302,0.688,0.507
			c0.186,0.204,0.325,0.438,0.417,0.702c0.093,0.265,0.139,0.556,0.139,0.874c0,0.31-0.042,0.587-0.125,0.833
			c-0.083,0.243-0.203,0.461-0.36,0.647c-0.157,0.188-0.345,0.351-0.564,0.489c-0.218,0.138-0.464,0.255-0.735,0.35
			c0.152,0.066,0.29,0.15,0.414,0.254c0.124,0.102,0.239,0.225,0.346,0.367s0.208,0.307,0.303,0.492
			c0.095,0.186,0.19,0.395,0.286,0.627l0.827,2.035c0.066,0.171,0.11,0.291,0.129,0.359
			C170.146,128.802,170.157,128.855,170.157,128.894z M168.308,122.407c0-0.362-0.081-0.667-0.242-0.918
			c-0.162-0.249-0.433-0.429-0.813-0.537c-0.119-0.034-0.254-0.058-0.404-0.071c-0.15-0.015-0.346-0.022-0.588-0.022h-1.034v3.111
			h1.198c0.323,0,0.604-0.039,0.839-0.118c0.235-0.078,0.431-0.188,0.588-0.328c0.156-0.141,0.272-0.305,0.346-0.495
			C168.272,122.838,168.308,122.631,168.308,122.407z"/>
		<path fill="#3D3A39" d="M177.021,125.412c0,0.185-0.046,0.316-0.139,0.395c-0.093,0.079-0.2,0.117-0.32,0.117h-4.229
			c0,0.357,0.035,0.679,0.107,0.965c0.072,0.285,0.192,0.529,0.358,0.734c0.167,0.205,0.385,0.361,0.652,0.471
			c0.269,0.109,0.596,0.164,0.982,0.164c0.306,0,0.578-0.025,0.817-0.074c0.24-0.051,0.446-0.106,0.622-0.168
			c0.174-0.063,0.317-0.117,0.43-0.168c0.112-0.05,0.197-0.074,0.255-0.074c0.033,0,0.062,0.008,0.089,0.024
			c0.026,0.017,0.046,0.042,0.061,0.075c0.015,0.033,0.024,0.08,0.032,0.139c0.008,0.06,0.011,0.132,0.011,0.218
			c0,0.063-0.002,0.115-0.007,0.16c-0.004,0.046-0.011,0.087-0.018,0.122c-0.007,0.035-0.019,0.067-0.036,0.096
			c-0.016,0.029-0.039,0.057-0.064,0.082c-0.026,0.027-0.104,0.068-0.231,0.129c-0.129,0.06-0.295,0.117-0.5,0.175
			c-0.204,0.058-0.442,0.108-0.71,0.153c-0.27,0.045-0.556,0.068-0.859,0.068c-0.529,0-0.991-0.074-1.388-0.222
			c-0.397-0.147-0.731-0.366-1.002-0.656c-0.271-0.291-0.476-0.654-0.614-1.092c-0.137-0.438-0.207-0.947-0.207-1.526
			c0-0.553,0.072-1.049,0.214-1.488c0.143-0.439,0.349-0.813,0.617-1.119c0.27-0.308,0.593-0.545,0.975-0.707
			c0.38-0.165,0.806-0.246,1.277-0.246c0.504,0,0.934,0.08,1.288,0.242c0.355,0.162,0.646,0.379,0.875,0.652
			c0.228,0.274,0.396,0.595,0.502,0.964c0.108,0.368,0.161,0.762,0.161,1.181V125.412z M175.836,125.062
			c0.015-0.618-0.123-1.104-0.413-1.455c-0.289-0.353-0.719-0.528-1.289-0.528c-0.292,0-0.548,0.055-0.768,0.164
			c-0.221,0.109-0.405,0.254-0.553,0.436c-0.148,0.181-0.263,0.391-0.344,0.631c-0.082,0.24-0.127,0.491-0.136,0.753H175.836z"/>
		<path fill="#3D3A39" d="M184.719,125.59c0,0.561-0.061,1.065-0.181,1.512c-0.122,0.448-0.3,0.826-0.536,1.139
			c-0.236,0.313-0.526,0.552-0.874,0.721c-0.347,0.168-0.744,0.254-1.191,0.254c-0.191,0-0.367-0.02-0.529-0.058
			c-0.162-0.039-0.32-0.098-0.475-0.179c-0.154-0.08-0.308-0.184-0.46-0.307c-0.152-0.124-0.314-0.269-0.485-0.436v3.211
			c0,0.039-0.009,0.072-0.029,0.1c-0.019,0.029-0.049,0.053-0.093,0.072c-0.042,0.02-0.102,0.033-0.177,0.042
			c-0.077,0.011-0.173,0.015-0.293,0.015c-0.114,0-0.21-0.004-0.286-0.015c-0.077-0.009-0.136-0.022-0.182-0.042
			s-0.077-0.043-0.093-0.072c-0.017-0.027-0.025-0.061-0.025-0.1v-8.969c0-0.043,0.007-0.077,0.021-0.104
			c0.015-0.026,0.042-0.049,0.085-0.067c0.043-0.021,0.098-0.032,0.165-0.04c0.066-0.007,0.147-0.011,0.242-0.011
			c0.101,0,0.183,0.004,0.247,0.011c0.064,0.008,0.118,0.02,0.161,0.04c0.042,0.019,0.072,0.041,0.088,0.067
			c0.017,0.026,0.025,0.061,0.025,0.104v0.863c0.195-0.199,0.383-0.373,0.564-0.521c0.181-0.148,0.363-0.271,0.545-0.368
			c0.184-0.097,0.371-0.171,0.565-0.221c0.191-0.051,0.395-0.074,0.609-0.074c0.466,0,0.864,0.09,1.192,0.27
			c0.329,0.182,0.595,0.429,0.803,0.742c0.207,0.314,0.357,0.68,0.453,1.096C184.672,124.683,184.719,125.124,184.719,125.59z
			 M183.5,125.725c0-0.328-0.025-0.646-0.076-0.951c-0.051-0.308-0.137-0.58-0.258-0.818c-0.123-0.237-0.287-0.428-0.492-0.57
			c-0.206-0.143-0.462-0.215-0.769-0.215c-0.152,0-0.304,0.023-0.452,0.068c-0.149,0.046-0.299,0.116-0.453,0.214
			c-0.152,0.098-0.313,0.226-0.48,0.386c-0.167,0.159-0.344,0.355-0.531,0.589v2.554c0.326,0.396,0.634,0.698,0.926,0.906
			c0.292,0.21,0.599,0.314,0.919,0.314c0.297,0,0.552-0.072,0.764-0.214c0.213-0.144,0.385-0.333,0.518-0.571
			c0.13-0.237,0.228-0.504,0.29-0.8C183.468,126.322,183.5,126.024,183.5,125.725z"/>
		<path fill="#3D3A39" d="M191.991,128.9c0,0.038-0.009,0.07-0.025,0.096c-0.017,0.026-0.046,0.05-0.089,0.068
			s-0.098,0.033-0.167,0.042c-0.069,0.01-0.154,0.016-0.253,0.016c-0.11,0-0.198-0.006-0.268-0.016
			c-0.069-0.009-0.124-0.023-0.164-0.042s-0.068-0.042-0.083-0.068c-0.013-0.025-0.021-0.058-0.021-0.096v-0.85
			c-0.366,0.404-0.728,0.7-1.084,0.885c-0.357,0.187-0.719,0.279-1.085,0.279c-0.428,0-0.789-0.072-1.081-0.215
			c-0.293-0.143-0.53-0.336-0.71-0.581c-0.181-0.245-0.311-0.531-0.389-0.856c-0.078-0.326-0.118-0.722-0.118-1.188v-3.896
			c0-0.039,0.008-0.07,0.025-0.097c0.017-0.025,0.049-0.05,0.097-0.071c0.047-0.021,0.108-0.035,0.185-0.043
			c0.076-0.007,0.171-0.011,0.286-0.011c0.113,0,0.208,0.004,0.285,0.011c0.076,0.008,0.136,0.021,0.182,0.043
			s0.078,0.046,0.096,0.071c0.02,0.026,0.029,0.058,0.029,0.097v3.738c0,0.377,0.026,0.678,0.082,0.903
			c0.055,0.226,0.138,0.419,0.25,0.577c0.113,0.16,0.253,0.283,0.425,0.371s0.37,0.133,0.6,0.133c0.294,0,0.588-0.104,0.88-0.314
			c0.293-0.208,0.603-0.517,0.931-0.92v-4.488c0-0.039,0.008-0.07,0.025-0.097c0.017-0.025,0.049-0.05,0.097-0.071
			c0.047-0.021,0.107-0.035,0.182-0.043c0.073-0.007,0.17-0.011,0.289-0.011c0.115,0,0.21,0.004,0.285,0.011
			c0.077,0.008,0.136,0.021,0.179,0.043s0.075,0.046,0.097,0.071c0.021,0.026,0.032,0.058,0.032,0.097V128.9z"/>
		<path fill="#3D3A39" d="M200.075,125.604c0,0.557-0.061,1.058-0.181,1.502c-0.122,0.445-0.3,0.824-0.536,1.139
			c-0.236,0.313-0.524,0.554-0.866,0.72c-0.342,0.167-0.736,0.251-1.178,0.251c-0.205,0-0.394-0.021-0.567-0.063
			c-0.173-0.039-0.344-0.104-0.51-0.195c-0.167-0.09-0.333-0.204-0.5-0.342c-0.167-0.139-0.341-0.305-0.527-0.5v0.785
			c0,0.038-0.01,0.072-0.029,0.1c-0.019,0.028-0.05,0.051-0.093,0.068c-0.043,0.017-0.097,0.029-0.161,0.038
			c-0.064,0.01-0.146,0.016-0.247,0.016c-0.095,0-0.176-0.006-0.242-0.016c-0.067-0.009-0.122-0.021-0.165-0.038
			c-0.043-0.018-0.07-0.04-0.085-0.068c-0.014-0.027-0.022-0.062-0.022-0.1v-9.532c0-0.039,0.009-0.072,0.024-0.101
			c0.017-0.028,0.048-0.053,0.093-0.071c0.046-0.02,0.106-0.033,0.183-0.043c0.076-0.009,0.172-0.014,0.285-0.014
			c0.12,0,0.217,0.005,0.293,0.014c0.076,0.01,0.136,0.023,0.178,0.043c0.044,0.019,0.074,0.043,0.094,0.071
			c0.019,0.028,0.028,0.062,0.028,0.101v3.845c0.19-0.195,0.375-0.358,0.553-0.492c0.179-0.133,0.354-0.241,0.524-0.324
			c0.171-0.084,0.343-0.145,0.514-0.183c0.171-0.037,0.353-0.056,0.542-0.056c0.466,0,0.865,0.092,1.195,0.277
			c0.332,0.187,0.599,0.435,0.807,0.746c0.207,0.311,0.357,0.677,0.453,1.096C200.027,124.695,200.075,125.137,200.075,125.604z
			 M198.854,125.739c0-0.327-0.024-0.647-0.075-0.956c-0.051-0.309-0.137-0.582-0.262-0.82c-0.125-0.238-0.29-0.43-0.496-0.575
			c-0.205-0.145-0.462-0.218-0.768-0.218c-0.153,0-0.305,0.021-0.453,0.065c-0.148,0.042-0.299,0.113-0.452,0.214
			c-0.153,0.1-0.312,0.229-0.478,0.385c-0.164,0.157-0.34,0.354-0.527,0.593v2.561c0.326,0.396,0.636,0.696,0.933,0.903
			c0.298,0.207,0.606,0.311,0.927,0.311c0.297,0,0.55-0.072,0.761-0.214c0.21-0.144,0.381-0.332,0.514-0.567
			c0.132-0.236,0.227-0.5,0.287-0.793C198.825,126.335,198.854,126.039,198.854,125.739z"/>
		<path fill="#3D3A39" d="M203.022,128.9c0,0.038-0.009,0.07-0.028,0.096c-0.02,0.026-0.05,0.05-0.093,0.068
			c-0.042,0.019-0.102,0.033-0.179,0.042c-0.076,0.01-0.173,0.016-0.293,0.016c-0.113,0-0.208-0.006-0.285-0.016
			c-0.076-0.009-0.136-0.023-0.182-0.042c-0.045-0.019-0.077-0.042-0.093-0.068c-0.017-0.025-0.025-0.058-0.025-0.096v-9.532
			c0-0.039,0.008-0.072,0.025-0.101c0.016-0.028,0.048-0.053,0.093-0.071c0.045-0.02,0.106-0.033,0.182-0.043
			c0.077-0.009,0.172-0.014,0.285-0.014c0.12,0,0.217,0.005,0.293,0.014c0.077,0.01,0.137,0.023,0.179,0.043
			c0.043,0.019,0.074,0.043,0.093,0.071c0.019,0.028,0.028,0.062,0.028,0.101V128.9z"/>
		<path fill="#3D3A39" d="M206.512,120.31c0,0.276-0.053,0.463-0.158,0.563c-0.105,0.1-0.297,0.15-0.578,0.15
			c-0.276,0-0.464-0.05-0.567-0.146c-0.102-0.098-0.152-0.282-0.152-0.554c0-0.275,0.052-0.464,0.157-0.563
			c0.104-0.1,0.296-0.149,0.577-0.149c0.276,0,0.466,0.049,0.567,0.146C206.46,119.854,206.512,120.039,206.512,120.31z
			 M206.376,128.9c0,0.038-0.01,0.07-0.029,0.096c-0.019,0.026-0.05,0.05-0.093,0.068c-0.042,0.019-0.102,0.033-0.178,0.042
			c-0.076,0.01-0.173,0.016-0.292,0.016c-0.114,0-0.209-0.006-0.286-0.016c-0.076-0.009-0.137-0.023-0.182-0.042
			c-0.044-0.019-0.076-0.042-0.093-0.068c-0.016-0.025-0.025-0.058-0.025-0.096v-6.422c0-0.033,0.009-0.064,0.025-0.092
			c0.017-0.03,0.048-0.053,0.093-0.072c0.045-0.02,0.106-0.033,0.182-0.043c0.077-0.01,0.172-0.015,0.286-0.015
			c0.119,0,0.216,0.005,0.292,0.015c0.077,0.01,0.136,0.023,0.178,0.043c0.043,0.02,0.074,0.042,0.093,0.072
			c0.019,0.027,0.029,0.059,0.029,0.092V128.9z"/>
		<path fill="#3D3A39" d="M213.168,127.924c0,0.08-0.002,0.149-0.008,0.209c-0.004,0.06-0.013,0.11-0.025,0.15
			c-0.012,0.041-0.025,0.076-0.042,0.106c-0.017,0.032-0.055,0.077-0.114,0.136c-0.059,0.06-0.16,0.134-0.303,0.221
			c-0.143,0.089-0.304,0.167-0.481,0.236c-0.178,0.068-0.372,0.124-0.582,0.168c-0.209,0.043-0.426,0.064-0.65,0.064
			c-0.461,0-0.87-0.076-1.227-0.229c-0.357-0.152-0.655-0.375-0.895-0.668c-0.241-0.291-0.424-0.651-0.55-1.076
			c-0.125-0.427-0.189-0.917-0.189-1.475c0-0.633,0.078-1.176,0.232-1.63c0.155-0.455,0.367-0.827,0.634-1.117
			c0.27-0.29,0.586-0.505,0.95-0.646c0.364-0.141,0.757-0.211,1.181-0.211c0.206,0,0.404,0.02,0.596,0.057
			c0.192,0.039,0.37,0.09,0.532,0.15c0.162,0.063,0.305,0.134,0.432,0.215c0.126,0.08,0.218,0.149,0.274,0.206
			c0.058,0.058,0.097,0.103,0.118,0.136c0.022,0.033,0.039,0.072,0.054,0.118c0.014,0.044,0.023,0.097,0.028,0.153
			c0.004,0.057,0.007,0.129,0.007,0.214c0,0.186-0.021,0.315-0.064,0.39c-0.043,0.073-0.095,0.11-0.157,0.11
			c-0.072,0-0.153-0.04-0.247-0.118c-0.093-0.078-0.21-0.166-0.353-0.26c-0.143-0.096-0.315-0.182-0.517-0.262
			c-0.203-0.078-0.442-0.117-0.717-0.117c-0.567,0-1,0.218-1.303,0.652c-0.302,0.436-0.453,1.067-0.453,1.895
			c0,0.414,0.04,0.776,0.118,1.088s0.194,0.572,0.346,0.782c0.153,0.21,0.339,0.364,0.561,0.468
			c0.221,0.102,0.474,0.152,0.759,0.152c0.272,0,0.509-0.042,0.714-0.128s0.381-0.179,0.531-0.282
			c0.15-0.103,0.277-0.195,0.378-0.277c0.103-0.084,0.182-0.125,0.239-0.125c0.033,0,0.063,0.009,0.086,0.028
			c0.023,0.019,0.043,0.052,0.061,0.097c0.016,0.045,0.029,0.102,0.035,0.171C213.165,127.746,213.168,127.828,213.168,127.924z"/>
		<path fill="#3D3A39" d="M224.007,125.618c0,0.522-0.069,1.005-0.206,1.445c-0.138,0.44-0.345,0.818-0.618,1.138
			c-0.274,0.319-0.616,0.567-1.028,0.746c-0.412,0.178-0.888,0.268-1.431,0.268c-0.528,0-0.988-0.078-1.38-0.236
			c-0.393-0.156-0.72-0.385-0.981-0.685c-0.262-0.3-0.457-0.663-0.585-1.092c-0.129-0.428-0.193-0.913-0.193-1.455
			c0-0.524,0.068-1.005,0.204-1.446c0.136-0.439,0.34-0.818,0.613-1.137c0.274-0.319,0.615-0.566,1.024-0.742
			c0.408-0.177,0.886-0.264,1.435-0.264c0.527,0,0.987,0.078,1.379,0.234c0.393,0.157,0.719,0.386,0.982,0.686
			c0.261,0.299,0.458,0.663,0.589,1.092C223.942,124.598,224.007,125.08,224.007,125.618z M222.787,125.696
			c0-0.347-0.032-0.676-0.097-0.985c-0.064-0.309-0.171-0.579-0.32-0.813c-0.149-0.233-0.35-0.417-0.604-0.553
			s-0.571-0.203-0.95-0.203c-0.351,0-0.652,0.061-0.904,0.186c-0.252,0.123-0.46,0.299-0.623,0.523
			c-0.163,0.227-0.284,0.494-0.364,0.804c-0.079,0.309-0.119,0.646-0.119,1.013c0,0.353,0.033,0.683,0.098,0.992
			c0.064,0.309,0.173,0.579,0.323,0.81c0.151,0.23,0.354,0.414,0.608,0.55c0.254,0.135,0.572,0.203,0.95,0.203
			c0.346,0,0.646-0.063,0.9-0.186c0.254-0.124,0.463-0.298,0.626-0.521c0.163-0.224,0.284-0.489,0.36-0.799
			C222.749,126.408,222.787,126.067,222.787,125.696z"/>
		<path fill="#3D3A39" d="M229.258,119.838c0,0.09-0.005,0.164-0.014,0.218c-0.01,0.056-0.02,0.099-0.032,0.133
			c-0.012,0.032-0.028,0.056-0.046,0.067c-0.02,0.012-0.043,0.019-0.072,0.019c-0.034,0-0.075-0.012-0.125-0.033
			c-0.05-0.022-0.11-0.045-0.182-0.071c-0.072-0.025-0.157-0.05-0.253-0.07c-0.099-0.022-0.21-0.032-0.339-0.032
			c-0.177,0-0.326,0.027-0.449,0.085c-0.125,0.057-0.224,0.146-0.3,0.268c-0.077,0.121-0.131,0.278-0.164,0.471
			c-0.034,0.193-0.05,0.428-0.05,0.703v0.698h1.434c0.039,0,0.07,0.009,0.097,0.026c0.026,0.017,0.05,0.045,0.072,0.086
			c0.021,0.04,0.037,0.091,0.049,0.152c0.012,0.063,0.018,0.139,0.018,0.229c0,0.172-0.021,0.295-0.064,0.371
			c-0.042,0.076-0.1,0.114-0.171,0.114h-1.434v5.63c0,0.038-0.009,0.07-0.028,0.096c-0.021,0.026-0.051,0.05-0.097,0.068
			c-0.046,0.019-0.106,0.033-0.182,0.042c-0.076,0.01-0.171,0.016-0.286,0.016c-0.114,0-0.209-0.006-0.284-0.016
			c-0.077-0.009-0.137-0.023-0.182-0.042c-0.045-0.019-0.078-0.042-0.097-0.068c-0.019-0.025-0.029-0.058-0.029-0.096v-5.63h-0.905
			c-0.078,0-0.134-0.038-0.172-0.114c-0.038-0.076-0.057-0.199-0.057-0.371c0-0.09,0.004-0.166,0.014-0.229
			c0.009-0.062,0.023-0.112,0.043-0.152c0.019-0.041,0.043-0.069,0.071-0.086c0.029-0.018,0.062-0.026,0.101-0.026h0.905v-0.663
			c0-0.446,0.042-0.831,0.126-1.152c0.083-0.32,0.21-0.583,0.381-0.788c0.171-0.204,0.386-0.355,0.646-0.454
			c0.259-0.097,0.565-0.146,0.917-0.146c0.166,0,0.328,0.017,0.485,0.047c0.157,0.031,0.279,0.063,0.364,0.099
			c0.085,0.037,0.143,0.068,0.171,0.097c0.029,0.029,0.052,0.066,0.071,0.11c0.02,0.047,0.032,0.102,0.04,0.164
			C229.254,119.671,229.258,119.748,229.258,119.838z"/>
		<path fill="#3D3A39" d="M239.805,127.773c0,0.076-0.001,0.143-0.007,0.199c-0.005,0.057-0.014,0.107-0.025,0.149
			c-0.012,0.044-0.027,0.081-0.046,0.114c-0.019,0.033-0.052,0.074-0.1,0.121c-0.047,0.048-0.147,0.121-0.299,0.219
			s-0.342,0.192-0.567,0.285c-0.227,0.092-0.485,0.172-0.778,0.235s-0.613,0.097-0.959,0.097c-0.599,0-1.14-0.101-1.624-0.3
			c-0.482-0.2-0.894-0.495-1.234-0.885c-0.341-0.39-0.602-0.872-0.785-1.445c-0.183-0.572-0.274-1.232-0.274-1.979
			c0-0.767,0.099-1.449,0.296-2.049c0.197-0.599,0.474-1.106,0.831-1.523c0.357-0.416,0.784-0.733,1.28-0.952
			c0.498-0.219,1.049-0.328,1.653-0.328c0.266,0,0.525,0.024,0.778,0.075c0.252,0.051,0.485,0.112,0.699,0.189
			c0.214,0.075,0.405,0.164,0.571,0.263c0.166,0.101,0.281,0.183,0.346,0.246c0.063,0.064,0.106,0.113,0.125,0.147
			c0.018,0.032,0.034,0.072,0.046,0.117c0.012,0.045,0.021,0.099,0.03,0.16c0.007,0.062,0.01,0.136,0.01,0.222
			c0,0.096-0.005,0.177-0.014,0.242c-0.009,0.066-0.024,0.123-0.043,0.167c-0.019,0.046-0.042,0.079-0.069,0.102
			c-0.025,0.021-0.058,0.031-0.096,0.031c-0.067,0-0.16-0.047-0.28-0.139c-0.119-0.093-0.273-0.195-0.463-0.308
			c-0.188-0.11-0.418-0.214-0.688-0.306c-0.271-0.093-0.595-0.14-0.973-0.14c-0.411,0-0.786,0.082-1.122,0.246
			c-0.338,0.164-0.625,0.405-0.865,0.724c-0.238,0.319-0.424,0.708-0.556,1.167c-0.131,0.46-0.198,0.983-0.198,1.573
			c0,0.585,0.064,1.104,0.191,1.553c0.126,0.449,0.308,0.825,0.544,1.127c0.237,0.303,0.527,0.531,0.872,0.685
			c0.344,0.155,0.734,0.232,1.169,0.232c0.368,0,0.69-0.045,0.964-0.136c0.275-0.091,0.509-0.191,0.703-0.304
			c0.194-0.11,0.353-0.212,0.478-0.303s0.222-0.136,0.294-0.136c0.034,0,0.062,0.008,0.086,0.021
			c0.023,0.014,0.043,0.042,0.057,0.081c0.014,0.041,0.025,0.097,0.032,0.169C239.801,127.573,239.805,127.663,239.805,127.773z"/>
		<path fill="#3D3A39" d="M246.826,128.9c0,0.038-0.009,0.07-0.028,0.096c-0.019,0.026-0.05,0.05-0.093,0.068
			s-0.103,0.033-0.178,0.042c-0.077,0.01-0.172,0.016-0.286,0.016c-0.119,0-0.216-0.006-0.292-0.016
			c-0.077-0.009-0.136-0.023-0.178-0.042c-0.043-0.019-0.075-0.042-0.094-0.068c-0.018-0.025-0.027-0.058-0.027-0.096v-3.76
			c0-0.367-0.029-0.662-0.086-0.885c-0.058-0.225-0.141-0.416-0.251-0.578c-0.108-0.162-0.25-0.286-0.424-0.372
			c-0.173-0.085-0.374-0.128-0.603-0.128c-0.294,0-0.59,0.104-0.885,0.313c-0.295,0.21-0.604,0.517-0.927,0.921v4.488
			c0,0.038-0.009,0.07-0.029,0.096c-0.019,0.026-0.049,0.05-0.093,0.068c-0.042,0.019-0.102,0.033-0.178,0.042
			c-0.077,0.01-0.173,0.016-0.293,0.016c-0.113,0-0.209-0.006-0.285-0.016c-0.077-0.009-0.136-0.023-0.182-0.042
			c-0.046-0.019-0.077-0.042-0.093-0.068c-0.017-0.025-0.025-0.058-0.025-0.096v-9.532c0-0.039,0.009-0.072,0.025-0.101
			c0.016-0.028,0.047-0.053,0.093-0.071c0.045-0.02,0.105-0.033,0.182-0.043c0.076-0.009,0.172-0.014,0.285-0.014
			c0.12,0,0.216,0.005,0.293,0.014c0.076,0.01,0.136,0.023,0.178,0.043c0.044,0.019,0.074,0.043,0.093,0.071
			c0.02,0.028,0.029,0.062,0.029,0.101v3.845c0.337-0.356,0.678-0.621,1.02-0.795c0.343-0.174,0.687-0.26,1.034-0.26
			c0.429,0,0.789,0.072,1.082,0.217c0.292,0.145,0.528,0.339,0.709,0.582c0.181,0.242,0.311,0.526,0.389,0.852
			c0.078,0.326,0.118,0.721,0.118,1.182V128.9z"/>
		<path fill="#3D3A39" d="M250.287,120.31c0,0.276-0.053,0.463-0.158,0.563c-0.105,0.1-0.297,0.15-0.578,0.15
			c-0.276,0-0.465-0.05-0.567-0.146c-0.102-0.098-0.153-0.282-0.153-0.554c0-0.275,0.052-0.464,0.158-0.563
			c0.104-0.1,0.296-0.149,0.577-0.149c0.276,0,0.465,0.049,0.567,0.146C250.235,119.854,250.287,120.039,250.287,120.31z
			 M250.15,128.9c0,0.038-0.009,0.07-0.028,0.096c-0.019,0.026-0.05,0.05-0.093,0.068c-0.042,0.019-0.102,0.033-0.179,0.042
			c-0.076,0.01-0.173,0.016-0.292,0.016c-0.114,0-0.209-0.006-0.286-0.016c-0.076-0.009-0.136-0.023-0.182-0.042
			c-0.044-0.019-0.076-0.042-0.093-0.068c-0.017-0.025-0.025-0.058-0.025-0.096v-6.422c0-0.033,0.008-0.064,0.025-0.092
			c0.017-0.03,0.048-0.053,0.093-0.072c0.045-0.02,0.106-0.033,0.182-0.043c0.077-0.01,0.172-0.015,0.286-0.015
			c0.119,0,0.216,0.005,0.292,0.015c0.077,0.01,0.137,0.023,0.179,0.043c0.043,0.02,0.074,0.042,0.093,0.072
			c0.019,0.027,0.028,0.059,0.028,0.092V128.9z"/>
		<path fill="#3D3A39" d="M257.857,128.9c0,0.038-0.009,0.07-0.028,0.096c-0.02,0.026-0.051,0.05-0.093,0.068
			c-0.043,0.019-0.103,0.033-0.178,0.042c-0.077,0.01-0.172,0.016-0.286,0.016c-0.119,0-0.216-0.006-0.292-0.016
			c-0.076-0.009-0.136-0.023-0.178-0.042c-0.044-0.019-0.075-0.042-0.094-0.068c-0.019-0.025-0.028-0.058-0.028-0.096v-3.76
			c0-0.367-0.028-0.662-0.086-0.885c-0.057-0.225-0.14-0.416-0.25-0.578c-0.108-0.162-0.25-0.286-0.424-0.372
			c-0.173-0.085-0.375-0.128-0.603-0.128c-0.295,0-0.59,0.104-0.885,0.313c-0.294,0.21-0.604,0.517-0.927,0.921v4.488
			c0,0.038-0.01,0.07-0.029,0.096c-0.019,0.026-0.05,0.05-0.093,0.068c-0.042,0.019-0.102,0.033-0.179,0.042
			c-0.076,0.01-0.173,0.016-0.292,0.016c-0.113,0-0.209-0.006-0.286-0.016c-0.076-0.009-0.136-0.023-0.182-0.042
			c-0.044-0.019-0.076-0.042-0.093-0.068c-0.016-0.025-0.025-0.058-0.025-0.096v-6.422c0-0.039,0.008-0.07,0.022-0.097
			c0.014-0.025,0.042-0.05,0.086-0.071c0.042-0.021,0.097-0.035,0.164-0.043c0.066-0.007,0.154-0.011,0.263-0.011
			c0.105,0,0.192,0.004,0.261,0.011c0.069,0.008,0.122,0.021,0.161,0.043c0.038,0.021,0.064,0.046,0.082,0.071
			c0.016,0.026,0.024,0.058,0.024,0.097v0.85c0.362-0.404,0.722-0.701,1.082-0.889c0.359-0.188,0.722-0.281,1.088-0.281
			c0.428,0,0.789,0.072,1.082,0.217c0.292,0.145,0.528,0.339,0.709,0.582c0.181,0.242,0.31,0.526,0.389,0.852
			c0.078,0.326,0.117,0.718,0.117,1.175V128.9z"/>
		<path fill="#3D3A39" d="M264.843,128.907c0,0.057-0.02,0.101-0.057,0.128c-0.039,0.029-0.092,0.051-0.157,0.064
			c-0.066,0.015-0.165,0.022-0.293,0.022c-0.124,0-0.222-0.008-0.296-0.022c-0.074-0.014-0.127-0.035-0.16-0.064
			c-0.034-0.027-0.05-0.071-0.05-0.128v-0.642c-0.28,0.299-0.593,0.532-0.938,0.698c-0.345,0.167-0.71,0.251-1.095,0.251
			c-0.337,0-0.643-0.044-0.917-0.133c-0.273-0.088-0.506-0.215-0.699-0.382c-0.193-0.166-0.342-0.371-0.449-0.613
			c-0.107-0.243-0.161-0.519-0.161-0.827c0-0.362,0.074-0.677,0.222-0.942c0.147-0.267,0.358-0.488,0.635-0.663
			c0.276-0.176,0.613-0.309,1.013-0.396s0.849-0.132,1.348-0.132h0.886v-0.5c0-0.247-0.027-0.466-0.079-0.656
			c-0.053-0.189-0.137-0.349-0.253-0.475c-0.117-0.126-0.268-0.222-0.453-0.285c-0.186-0.065-0.415-0.097-0.686-0.097
			c-0.29,0-0.55,0.034-0.781,0.104c-0.231,0.068-0.433,0.146-0.606,0.229c-0.174,0.083-0.32,0.159-0.436,0.229
			c-0.117,0.068-0.203,0.104-0.26,0.104c-0.039,0-0.072-0.01-0.099-0.029c-0.029-0.019-0.055-0.047-0.076-0.085
			c-0.021-0.038-0.037-0.087-0.046-0.146s-0.015-0.125-0.015-0.196c0-0.119,0.009-0.212,0.025-0.281
			c0.017-0.069,0.057-0.136,0.121-0.196c0.064-0.062,0.175-0.136,0.332-0.219c0.156-0.082,0.338-0.159,0.542-0.228
			c0.204-0.069,0.428-0.126,0.67-0.171c0.243-0.046,0.488-0.067,0.736-0.067c0.461,0,0.854,0.051,1.177,0.156
			c0.324,0.104,0.585,0.258,0.785,0.459c0.2,0.203,0.344,0.454,0.435,0.754c0.091,0.301,0.136,0.648,0.136,1.05V128.907z
			 M263.673,125.975h-1.006c-0.324,0-0.604,0.028-0.843,0.083c-0.238,0.054-0.435,0.135-0.591,0.242
			c-0.158,0.106-0.274,0.234-0.346,0.385c-0.075,0.149-0.111,0.323-0.111,0.518c0,0.333,0.105,0.599,0.317,0.795
			c0.211,0.198,0.507,0.297,0.889,0.297c0.309,0,0.595-0.079,0.859-0.235c0.264-0.158,0.541-0.397,0.832-0.721V125.975z"/>
		<path fill="#3D3A39" d="M272.749,119.246c-0.452,0.957-0.788,1.938-1.009,2.943s-0.333,2.019-0.333,3.036
			c0,1.022,0.114,2.036,0.339,3.04c0.227,1.003,0.556,1.987,0.988,2.954c0.024,0.057,0.037,0.105,0.039,0.146
			c0.002,0.041-0.013,0.074-0.046,0.1c-0.033,0.026-0.083,0.046-0.152,0.058s-0.163,0.019-0.282,0.019
			c-0.087,0-0.16-0.004-0.222-0.009c-0.062-0.004-0.115-0.013-0.161-0.028c-0.045-0.014-0.083-0.029-0.11-0.05
			c-0.028-0.019-0.05-0.04-0.065-0.063c-0.256-0.485-0.482-0.977-0.677-1.474s-0.359-1.002-0.492-1.517
			c-0.133-0.514-0.233-1.033-0.3-1.559c-0.066-0.526-0.1-1.057-0.1-1.595s0.036-1.068,0.109-1.592
			c0.074-0.522,0.18-1.043,0.315-1.559c0.135-0.517,0.301-1.024,0.496-1.522c0.195-0.5,0.414-0.994,0.656-1.485
			c0.005-0.019,0.019-0.035,0.04-0.05c0.022-0.014,0.051-0.028,0.089-0.043c0.039-0.014,0.091-0.025,0.158-0.031
			c0.066-0.008,0.152-0.012,0.256-0.012c0.109,0,0.197,0.008,0.264,0.022c0.067,0.015,0.118,0.032,0.157,0.057
			s0.06,0.055,0.065,0.093C272.774,119.163,272.768,119.203,272.749,119.246z"/>
		<path fill="#3D3A39" d="M280.662,120.373c0,0.091-0.005,0.169-0.015,0.236c-0.009,0.066-0.024,0.119-0.046,0.16
			c-0.021,0.04-0.047,0.07-0.078,0.089c-0.031,0.02-0.065,0.028-0.104,0.028h-2.598v8.007c0,0.037-0.009,0.07-0.028,0.1
			c-0.02,0.028-0.052,0.052-0.1,0.067c-0.047,0.018-0.11,0.031-0.188,0.043c-0.079,0.012-0.177,0.019-0.296,0.019
			c-0.114,0-0.212-0.007-0.293-0.019c-0.081-0.012-0.145-0.025-0.192-0.043c-0.048-0.016-0.082-0.039-0.1-0.067
			c-0.02-0.029-0.028-0.063-0.028-0.1v-8.007h-2.597c-0.039,0-0.074-0.009-0.104-0.028c-0.031-0.019-0.056-0.049-0.075-0.089
			c-0.019-0.041-0.035-0.094-0.046-0.16c-0.012-0.067-0.019-0.146-0.019-0.236c0-0.09,0.006-0.17,0.019-0.238
			c0.012-0.069,0.028-0.125,0.046-0.168s0.043-0.073,0.075-0.094c0.031-0.018,0.065-0.027,0.104-0.027h6.421
			c0.038,0,0.072,0.01,0.104,0.027c0.031,0.021,0.057,0.051,0.078,0.094c0.022,0.043,0.037,0.099,0.046,0.168
			C280.657,120.203,280.662,120.283,280.662,120.373z"/>
		<path fill="#3D3A39" d="M285.557,128.907c0,0.057-0.02,0.101-0.057,0.128c-0.038,0.029-0.091,0.051-0.157,0.064
			c-0.066,0.015-0.165,0.022-0.293,0.022c-0.124,0-0.222-0.008-0.296-0.022c-0.074-0.014-0.127-0.035-0.16-0.064
			c-0.034-0.027-0.051-0.071-0.051-0.128v-0.642c-0.281,0.299-0.593,0.532-0.938,0.698c-0.345,0.167-0.71,0.251-1.095,0.251
			c-0.337,0-0.644-0.044-0.917-0.133c-0.273-0.088-0.506-0.215-0.699-0.382c-0.193-0.166-0.342-0.371-0.45-0.613
			c-0.106-0.243-0.16-0.519-0.16-0.827c0-0.362,0.074-0.677,0.222-0.942c0.146-0.267,0.358-0.488,0.634-0.663
			c0.276-0.176,0.614-0.309,1.014-0.396s0.849-0.132,1.348-0.132h0.886v-0.5c0-0.247-0.027-0.466-0.079-0.656
			c-0.052-0.189-0.137-0.349-0.253-0.475c-0.117-0.126-0.268-0.222-0.453-0.285c-0.185-0.065-0.414-0.097-0.685-0.097
			c-0.29,0-0.55,0.034-0.781,0.104c-0.231,0.068-0.433,0.146-0.606,0.229c-0.174,0.083-0.32,0.159-0.436,0.229
			c-0.117,0.068-0.203,0.104-0.26,0.104c-0.039,0-0.072-0.01-0.1-0.029c-0.029-0.019-0.054-0.047-0.075-0.085
			s-0.037-0.087-0.046-0.146s-0.015-0.125-0.015-0.196c0-0.119,0.008-0.212,0.025-0.281c0.016-0.069,0.057-0.136,0.121-0.196
			c0.064-0.062,0.175-0.136,0.332-0.219c0.157-0.082,0.339-0.159,0.542-0.228c0.204-0.069,0.428-0.126,0.67-0.171
			c0.243-0.046,0.488-0.067,0.735-0.067c0.462,0,0.854,0.051,1.178,0.156c0.324,0.104,0.585,0.258,0.785,0.459
			c0.199,0.203,0.344,0.454,0.435,0.754c0.09,0.301,0.136,0.648,0.136,1.05V128.907z M284.387,125.975h-1.006
			c-0.324,0-0.604,0.028-0.843,0.083c-0.237,0.054-0.435,0.135-0.591,0.242c-0.157,0.106-0.273,0.234-0.347,0.385
			c-0.074,0.149-0.11,0.323-0.11,0.518c0,0.333,0.105,0.599,0.317,0.795c0.211,0.198,0.508,0.297,0.889,0.297
			c0.309,0,0.595-0.079,0.859-0.235c0.264-0.158,0.541-0.397,0.832-0.721V125.975z"/>
		<path fill="#3D3A39" d="M289.031,120.31c0,0.276-0.052,0.463-0.156,0.563c-0.105,0.1-0.297,0.15-0.579,0.15
			c-0.276,0-0.465-0.05-0.567-0.146c-0.102-0.098-0.153-0.282-0.153-0.554c0-0.275,0.052-0.464,0.157-0.563
			c0.104-0.1,0.297-0.149,0.578-0.149c0.276,0,0.464,0.049,0.567,0.146C288.98,119.854,289.031,120.039,289.031,120.31z
			 M288.896,128.9c0,0.038-0.009,0.07-0.029,0.096c-0.019,0.026-0.049,0.05-0.092,0.068c-0.043,0.019-0.103,0.033-0.179,0.042
			c-0.076,0.01-0.173,0.016-0.293,0.016c-0.114,0-0.209-0.006-0.285-0.016c-0.077-0.009-0.136-0.023-0.182-0.042
			c-0.044-0.019-0.076-0.042-0.092-0.068c-0.017-0.025-0.025-0.058-0.025-0.096v-6.422c0-0.033,0.008-0.064,0.025-0.092
			c0.016-0.03,0.048-0.053,0.092-0.072c0.046-0.02,0.105-0.033,0.182-0.043c0.076-0.01,0.171-0.015,0.285-0.015
			c0.12,0,0.217,0.005,0.293,0.015s0.135,0.023,0.179,0.043c0.043,0.02,0.073,0.042,0.092,0.072c0.02,0.027,0.029,0.059,0.029,0.092
			V128.9z"/>
		<path fill="#3D3A39" d="M300.056,122.465c0,0.032-0.005,0.073-0.014,0.121c-0.009,0.047-0.026,0.107-0.051,0.178l-1.89,6.101
			c-0.015,0.053-0.037,0.097-0.068,0.129s-0.073,0.06-0.129,0.078c-0.055,0.02-0.128,0.032-0.224,0.04
			c-0.096,0.006-0.215,0.011-0.357,0.011c-0.148,0-0.272-0.006-0.371-0.016c-0.1-0.009-0.18-0.023-0.24-0.042
			c-0.058-0.019-0.103-0.045-0.131-0.078c-0.029-0.034-0.05-0.074-0.065-0.122l-1.348-4.658l-0.015-0.065l-0.014,0.065l-1.248,4.658
			c-0.015,0.053-0.037,0.097-0.068,0.129c-0.03,0.032-0.077,0.06-0.139,0.078c-0.062,0.02-0.141,0.032-0.239,0.04
			c-0.098,0.006-0.217,0.011-0.36,0.011c-0.147,0-0.268-0.006-0.36-0.016c-0.092-0.009-0.169-0.023-0.228-0.042
			c-0.06-0.019-0.104-0.045-0.133-0.078c-0.028-0.034-0.049-0.074-0.063-0.122l-1.877-6.101c-0.024-0.07-0.04-0.131-0.05-0.178
			c-0.009-0.048-0.013-0.089-0.013-0.121c0-0.043,0.009-0.078,0.027-0.104c0.02-0.026,0.052-0.049,0.097-0.064
			c0.045-0.017,0.106-0.027,0.182-0.033c0.076-0.004,0.168-0.007,0.279-0.007c0.133,0,0.24,0.004,0.321,0.011
			c0.081,0.008,0.143,0.02,0.185,0.036c0.043,0.017,0.074,0.041,0.093,0.071s0.035,0.067,0.049,0.11l1.549,5.295l0.015,0.063
			l0.014-0.063l1.42-5.295c0.009-0.043,0.025-0.08,0.046-0.11s0.053-0.055,0.097-0.071c0.042-0.017,0.101-0.028,0.174-0.036
			c0.074-0.007,0.17-0.011,0.29-0.011c0.113,0,0.208,0.004,0.281,0.011c0.074,0.008,0.132,0.02,0.175,0.036s0.074,0.039,0.093,0.067
			c0.019,0.029,0.034,0.063,0.042,0.101l1.535,5.309l0.014,0.063l0.007-0.063l1.527-5.295c0.01-0.043,0.025-0.08,0.047-0.11
			s0.054-0.055,0.1-0.071c0.044-0.017,0.107-0.028,0.185-0.036c0.078-0.007,0.18-0.011,0.304-0.011c0.114,0,0.206,0.003,0.274,0.007
			c0.069,0.006,0.125,0.018,0.164,0.035c0.042,0.021,0.069,0.041,0.086,0.065C300.046,122.389,300.056,122.422,300.056,122.465z"/>
		<path fill="#3D3A39" d="M306.191,128.907c0,0.057-0.019,0.101-0.057,0.128c-0.039,0.029-0.091,0.051-0.156,0.064
			c-0.067,0.015-0.165,0.022-0.293,0.022c-0.124,0-0.223-0.008-0.296-0.022c-0.074-0.014-0.127-0.035-0.16-0.064
			c-0.035-0.027-0.051-0.071-0.051-0.128v-0.642c-0.281,0.299-0.593,0.532-0.938,0.698c-0.345,0.167-0.71,0.251-1.095,0.251
			c-0.338,0-0.644-0.044-0.917-0.133c-0.273-0.088-0.506-0.215-0.7-0.382c-0.192-0.166-0.341-0.371-0.449-0.613
			c-0.107-0.243-0.16-0.519-0.16-0.827c0-0.362,0.074-0.677,0.222-0.942c0.146-0.267,0.358-0.488,0.635-0.663
			c0.276-0.176,0.613-0.309,1.012-0.396c0.4-0.088,0.85-0.132,1.349-0.132h0.885v-0.5c0-0.247-0.026-0.466-0.078-0.656
			c-0.052-0.189-0.137-0.349-0.253-0.475c-0.117-0.126-0.268-0.222-0.453-0.285c-0.186-0.065-0.414-0.097-0.686-0.097
			c-0.289,0-0.549,0.034-0.78,0.104c-0.231,0.068-0.434,0.146-0.607,0.229c-0.174,0.083-0.319,0.159-0.435,0.229
			c-0.117,0.068-0.203,0.104-0.26,0.104c-0.039,0-0.072-0.01-0.1-0.029c-0.029-0.019-0.054-0.047-0.075-0.085
			s-0.037-0.087-0.046-0.146c-0.01-0.06-0.015-0.125-0.015-0.196c0-0.119,0.008-0.212,0.025-0.281
			c0.016-0.069,0.057-0.136,0.121-0.196c0.064-0.062,0.175-0.136,0.332-0.219c0.157-0.082,0.338-0.159,0.542-0.228
			c0.205-0.069,0.428-0.126,0.67-0.171c0.243-0.046,0.487-0.067,0.735-0.067c0.461,0,0.854,0.051,1.177,0.156
			c0.324,0.104,0.586,0.258,0.786,0.459c0.199,0.203,0.344,0.454,0.435,0.754c0.09,0.301,0.135,0.648,0.135,1.05V128.907z
			 M305.021,125.975h-1.006c-0.324,0-0.604,0.028-0.842,0.083c-0.238,0.054-0.435,0.135-0.592,0.242
			c-0.157,0.106-0.273,0.234-0.346,0.385c-0.074,0.149-0.11,0.323-0.11,0.518c0,0.333,0.105,0.599,0.316,0.795
			c0.212,0.198,0.507,0.297,0.889,0.297c0.31,0,0.596-0.079,0.859-0.235c0.264-0.158,0.541-0.397,0.832-0.721V125.975z"/>
		<path fill="#3D3A39" d="M313.883,128.9c0,0.038-0.009,0.07-0.028,0.096c-0.018,0.026-0.05,0.05-0.092,0.068
			c-0.043,0.019-0.103,0.033-0.179,0.042c-0.076,0.01-0.171,0.016-0.285,0.016c-0.12,0-0.216-0.006-0.293-0.016
			c-0.076-0.009-0.135-0.023-0.178-0.042c-0.043-0.019-0.075-0.042-0.093-0.068c-0.02-0.025-0.029-0.058-0.029-0.096v-3.76
			c0-0.367-0.027-0.662-0.085-0.885c-0.057-0.225-0.14-0.416-0.25-0.578c-0.109-0.162-0.25-0.286-0.424-0.372
			c-0.173-0.085-0.375-0.128-0.603-0.128c-0.295,0-0.59,0.104-0.884,0.313c-0.295,0.21-0.604,0.517-0.927,0.921v4.488
			c0,0.038-0.01,0.07-0.029,0.096c-0.02,0.026-0.051,0.05-0.094,0.068c-0.042,0.019-0.102,0.033-0.177,0.042
			c-0.077,0.01-0.173,0.016-0.293,0.016c-0.114,0-0.209-0.006-0.286-0.016c-0.076-0.009-0.136-0.023-0.182-0.042
			c-0.044-0.019-0.076-0.042-0.092-0.068c-0.016-0.025-0.025-0.058-0.025-0.096v-6.422c0-0.039,0.009-0.07,0.022-0.097
			c0.014-0.025,0.043-0.05,0.086-0.071c0.042-0.021,0.098-0.035,0.164-0.043c0.066-0.007,0.155-0.011,0.263-0.011
			c0.105,0,0.192,0.004,0.261,0.011c0.069,0.008,0.122,0.021,0.161,0.043c0.038,0.021,0.065,0.046,0.083,0.071
			c0.016,0.026,0.024,0.058,0.024,0.097v0.85c0.361-0.404,0.721-0.701,1.081-0.889c0.36-0.188,0.722-0.281,1.088-0.281
			c0.429,0,0.789,0.072,1.082,0.217c0.292,0.145,0.529,0.339,0.709,0.582c0.181,0.242,0.31,0.526,0.389,0.852
			c0.078,0.326,0.117,0.718,0.117,1.175V128.9z"/>
		<path fill="#3D3A39" d="M318.415,125.247c0,0.538-0.034,1.068-0.099,1.595c-0.068,0.525-0.168,1.045-0.301,1.559
			c-0.133,0.515-0.296,1.02-0.488,1.517c-0.193,0.497-0.417,0.988-0.675,1.474c-0.014,0.023-0.036,0.045-0.064,0.063
			c-0.029,0.021-0.066,0.036-0.111,0.05c-0.044,0.016-0.098,0.024-0.16,0.028c-0.063,0.005-0.135,0.009-0.222,0.009
			c-0.124,0-0.22-0.007-0.289-0.019c-0.069-0.012-0.12-0.031-0.149-0.058c-0.031-0.025-0.046-0.059-0.043-0.1
			c0.001-0.04,0.015-0.089,0.039-0.146c0.438-0.961,0.769-1.944,0.992-2.95c0.223-1.006,0.336-2.021,0.336-3.044
			c0-1.018-0.113-2.03-0.336-3.036c-0.224-1.006-0.559-1.986-1.006-2.943c-0.019-0.043-0.027-0.083-0.022-0.121
			c0.005-0.038,0.026-0.068,0.064-0.093c0.039-0.024,0.09-0.042,0.157-0.057c0.066-0.015,0.154-0.022,0.263-0.022
			c0.1,0,0.184,0.004,0.25,0.012c0.066,0.006,0.121,0.018,0.161,0.031c0.041,0.015,0.07,0.029,0.089,0.043
			c0.02,0.015,0.033,0.031,0.043,0.05c0.49,0.976,0.874,1.979,1.152,3.008C318.276,123.127,318.415,124.176,318.415,125.247z"/>
	</g>
	<g>
		<path fill="#3D3A39" d="M78.814,94v-5.181c0-0.444,0-1.29-0.127-1.692c-0.042-0.084-0.084-0.211-0.084-0.296
			c0-0.105,0.042-0.147,0.126-0.147c0.36,0,2.221,0.909,2.56,1.078h3.532v-3.045c0-0.317-0.043-1.354-0.211-1.713
			c-0.043-0.105-0.148-0.275-0.148-0.381c0-0.106,0.127-0.127,0.19-0.127c0.317,0,2.347,0.592,2.644,0.74
			c0.126,0.063,0.296,0.17,0.296,0.338c0,0.212-0.676,0.55-0.825,0.635v3.553h3.617c0.106-0.127,0.698-0.909,0.93-0.909
			c0.127,0,0.317,0.127,0.402,0.19c0.168,0.127,1.67,1.121,1.67,1.332c0,0.169-0.592,0.592-0.697,0.677
			c0,1.522-0.022,3.024-0.022,4.547c0,0.741,0.064,1.501,0.106,2.242c-0.72,0.254-1.459,0.485-2.221,0.634l0.085-1.48h-3.87v4.61
			c0,0.909,0.064,1.84,0.106,2.728c-0.698,0.317-1.438,0.529-2.157,0.763c0.042-0.975,0.106-1.946,0.106-2.919v-5.182h-4.082v0.931
			c-0.676,0.359-1.248,0.423-2.009,0.55C78.75,95.65,78.814,94.825,78.814,94z M84.821,94.212v-5.626h-3.828l-0.254,0.233v5.393
			H84.821z M90.636,94.212v-5.626h-3.87v5.626H90.636z"/>
		<path fill="#3D3A39" d="M105.375,95.65h-4.864l-0.317,0.316l-0.804-1.184c0.762,0.104,1.671,0.147,2.453,0.127v-2.453h-2.791
			l-0.318,0.316l-0.804-1.205c0.381,0.043,0.804,0.126,1.184,0.126h2.728c0-0.782-0.021-1.67-0.253-2.431h-1.162l-0.339,0.338
			l-0.782-1.205c0.359,0.043,0.803,0.127,1.163,0.127h2.686v-2.221H99.58l-0.317,0.317l-0.803-1.142
			c0.38,0.021,0.782,0.063,1.184,0.063c1.164,0.021,2.326,0,3.51,0.021v-1.417c0-0.232-0.041-0.761-0.147-0.994
			c-0.021-0.084-0.064-0.147-0.064-0.211c0-0.085,0.043-0.127,0.127-0.127c0.38,0,2.453,0.634,2.453,1.058
			c0,0.189-0.55,0.423-0.676,0.486v1.205l2.792-0.021V84.23c0-0.296-0.021-0.719-0.149-0.994c-0.021-0.064-0.063-0.148-0.063-0.211
			c0-0.106,0.085-0.127,0.148-0.127c0.296,0,2.432,0.697,2.432,0.994c0,0.231-0.507,0.465-0.677,0.549v1.1h2.539
			c0.042-0.063,0.719-0.952,0.931-0.952c0.211,0,1.438,1.206,1.438,1.481c0,0.127-0.105,0.232-0.211,0.232h-4.695v2.221h1.819
			c0.064-0.084,0.719-0.867,0.931-0.867s1.311,1.184,1.311,1.438c0,0.127-0.169,0.17-0.275,0.17l-2.939,0.021
			c0.064,0.021,0.994,0.316,0.994,0.528c0,0.147-0.36,0.359-0.465,0.444v1.437h1.649c0.064-0.083,0.655-0.697,0.867-0.697
			c0.233,0,1.375,1.016,1.375,1.269c0,0.106-0.106,0.17-0.21,0.17h-3.68v2.475h0.359c0.063-0.085,0.697-0.719,0.888-0.719
			c0.211,0,1.375,0.973,1.375,1.247c0,0.148-0.191,0.212-0.317,0.212h-5.9v2.305l3.003,0.021c0.063-0.063,0.782-1.015,0.973-1.015
			c0.232,0,1.48,1.226,1.48,1.521c0,0.128-0.127,0.233-0.254,0.233l-5.203-0.021c-0.042,1.226,0,2.475,0.106,3.679
			c-0.656,0.233-1.312,0.425-1.967,0.572c0.042-0.655,0.127-1.354,0.127-2.009v-2.242l-3.913,0.021l-0.317,0.316l-0.825-1.184
			c0.38,0.042,0.825,0.127,1.184,0.127l3.87-0.021V95.65z M105.375,91.694v-2.431h-2.411c0.085,0.021,1.016,0.232,1.016,0.486
			c0,0.147-0.36,0.316-0.465,0.381v1.563H105.375z M105.375,94.91v-2.453h-1.861v2.453H105.375z M107.638,88.523v-2.221h-2.792
			v2.221H107.638z M108.992,91.694v-1.543c0-0.338-0.106-0.571-0.191-0.888h-1.396c-0.064,0.148-0.17,0.254-0.296,0.358v2.072
			H108.992z M107.109,92.457v2.453h1.883v-2.453H107.109z"/>
		<path fill="#3D3A39" d="M130.032,84.526c0.106-0.127,0.719-0.888,0.931-0.888c0.148,0,0.295,0.105,0.422,0.189
			c0.19,0.127,1.438,0.867,1.438,1.078c0,0.169-0.486,0.486-0.593,0.593v2.517c0,0.592,0.021,1.205,0.043,1.818
			c-0.677,0.147-1.332,0.381-2.01,0.486l0.064-0.867h-3.066c0.19,0.106,1.078,0.486,1.078,0.698c0,0.148-0.486,0.466-0.591,0.55
			c-0.022,0.169-0.022,0.338-0.022,0.508c0,0.592,0.043,1.205,0.085,1.798h3.68c0.126-0.106,0.973-0.974,1.142-0.974
			c0.127,0,0.233,0.064,0.317,0.147l1.207,1.101c0.084,0.063,0.189,0.17,0.189,0.275c0,0.189-0.274,0.189-0.401,0.189h-6.047
			c0.274,1.375,0.655,2.749,1.396,3.934c0.274,0.444,0.55,0.889,0.91,1.269c0.316,0.36,0.697,0.698,1.056,1.016
			c0.212,0.169,0.613,0.487,0.91,0.487c0.635,0,0.994-2.749,1.354-2.749c0.084,0,0.106,0.104,0.106,0.146
			c0,0.17-0.043,0.339-0.064,0.487c-0.063,0.508-0.085,0.995-0.085,1.501c0,0.382,0,0.804,0.106,1.163
			c0.106,0.381,0.572,1.12,0.572,1.418c0,0.338-0.402,0.422-0.656,0.422c-0.317,0-0.614-0.084-0.91-0.169
			c-0.528-0.148-1.057-0.359-1.564-0.614c-1.84-0.908-3.659-3.616-4.229-5.562c-0.274-0.909-0.423-1.797-0.592-2.749h-4.061v6.027
			c0.444-0.127,4.483-1.396,4.526-1.396c0.063,0,0.127,0.042,0.127,0.105c0,0.085-0.106,0.147-0.17,0.19
			c-1.817,1.184-3.806,2.22-5.414,3.723l-1.248-2.053c0.338-0.295,0.423-0.465,0.423-0.908c0-4.483,0.021-8.968,0.021-13.45
			c0-0.466,0-0.952-0.064-1.396c-0.021-0.189-0.232-0.888-0.232-0.93c0.043-0.085,0.064-0.085,0.106-0.085
			c0.338,0,2.072,0.783,2.41,0.952H130.032z M130.328,88.713v-3.446h-7.93l-0.254,0.274v3.151L130.328,88.713z M125.887,89.453
			h-3.743v3.554h3.976C126.036,91.821,125.951,90.639,125.887,89.453z"/>
		<path fill="#3D3A39" d="M154.013,99.435c0,0.846,0.106,1.757,0.147,2.622c-0.654,0.234-1.268,0.36-1.966,0.529l0.085-1.227
			h-10.638v0.697c-0.593,0.214-1.227,0.382-1.882,0.466c0.042-0.846,0.148-1.734,0.148-2.559V85.795c0-0.423-0.064-0.867-0.106-1.29
			c-0.021-0.296-0.211-0.993-0.211-1.142c0-0.17,0.085-0.232,0.232-0.232c0.338,0,1.882,0.74,2.22,0.908h10.024
			c0.127-0.146,0.571-0.781,0.825-0.781c0.211,0,1.417,0.93,1.649,1.078c0.105,0.063,0.126,0.169,0.126,0.275
			c0,0.147-0.529,0.507-0.634,0.613L154.013,99.435z M152.279,100.6V84.78h-10.426l-0.212,0.232V100.6H152.279z M147.182,85.985
			c-0.063-0.253-0.148-0.486-0.295-0.719c0-0.042-0.021-0.063-0.021-0.106c0-0.105,0.189-0.127,0.274-0.127
			c0.401,0,1.29,0.297,1.67,0.445c0.17,0.063,0.254,0.168,0.254,0.338c0,0.211-0.254,0.316-0.422,0.381l0.042,1.924h1.48
			c0.106-0.105,0.486-0.549,0.613-0.549c0.127,0,0.994,0.846,0.994,1.035c0,0.232-0.211,0.254-0.401,0.254h-2.664
			c0.02,0.551,0.063,1.078,0.083,1.628c0.043,0.931,0.17,1.84,0.297,2.771c0.147-0.486,0.295-0.994,0.423-1.48
			c0.063-0.274,0.168-0.57,0.211-0.846c0-0.084,0.063-0.634,0.085-0.697c0.042-0.021,0.084-0.021,0.105-0.021
			c0.359,0,1.777,0.952,1.777,1.29c0,0.232-0.36,0.254-0.529,0.274c-0.508,1.164-1.037,2.326-1.628,3.469
			c0.105,0.318,0.549,1.691,0.91,1.691c0.316,0,0.782-2.219,0.803-2.262c0-0.064,0.042-0.127,0.127-0.127
			c0.105,0,0.105,0.104,0.084,0.189c-0.041,0.698-0.084,1.375-0.084,2.072c0,0.613,0.063,1.248,0.253,1.84
			c0.064,0.169,0.191,0.572,0.191,0.761c0,0.275-0.106,0.36-0.381,0.36c-0.867,0-2.051-1.543-2.432-2.24l-0.401-0.741
			c-0.657,0.993-1.48,1.839-2.326,2.666c-0.043,0.04-0.106,0.083-0.17,0.083c-0.063,0-0.126-0.043-0.126-0.106
			c0-0.147,0.465-0.76,0.549-0.909c0.614-0.951,1.227-2.008,1.65-3.045c-0.529-2.241-0.677-4.335-0.804-6.619h-4.314l-0.358,0.274
			l-0.846-1.142c0.508,0.043,1.056,0.127,1.543,0.127h3.913C147.246,87.508,147.309,86.535,147.182,85.985z M144.686,96.369
			c0.635-0.105,1.291-0.17,1.925-0.297c0.254-0.063,0.57-0.168,0.803-0.168c0.085,0,0.169,0.063,0.169,0.147
			c0,0.147-0.846,0.466-0.994,0.528c-1.227,0.592-2.622,1.164-3.701,1.987l-1.035-1.839
			C142.804,96.664,143.735,96.518,144.686,96.369z M145.935,90.088c0.211,0,0.973,0.613,1.162,0.74
			c0.085,0.063,0.17,0.147,0.17,0.254c0,0.169-0.318,0.359-0.423,0.444v1.987c0,0.507,0.064,1.037,0.105,1.544
			c-0.507,0.233-1.036,0.359-1.565,0.466l0.064-1.036h-1.163v0.909c-0.465,0.17-0.952,0.337-1.458,0.443
			c0.041-0.529,0.105-1.1,0.105-1.628v-2.241c0-0.254-0.022-0.509-0.043-0.762c-0.021-0.254-0.021-0.486-0.105-0.741
			c-0.021-0.063-0.042-0.127-0.042-0.21c0-0.127,0.168-0.127,0.253-0.127c0.275,0,1.185,0.38,1.459,0.486h0.867
			C145.427,90.489,145.743,90.088,145.935,90.088z M145.448,91.314h-0.994l-0.169,0.17v2.283h1.163V91.314z M150.46,87.445
			c-0.486,0-0.529-0.381-0.699-0.74c-0.042-0.106-0.127-0.233-0.189-0.339c-0.063-0.106-0.381-0.508-0.381-0.55
			c0-0.084,0.105-0.127,0.169-0.127c0.19,0,0.422,0.043,0.614,0.085c0.507,0.084,1.141,0.358,1.141,0.951
			C151.115,87.148,150.904,87.445,150.46,87.445z"/>
	</g>
	<g>
		<path fill="#3D3A39" d="M81.035,120.9l0.598,0.027c0.925,0.054,1.849-0.055,2.801-0.109c-0.163-0.707-0.408-1.25-0.707-1.902
			c-0.028-0.055-0.082-0.137-0.082-0.191c0.381-0.108,1.468,0.87,1.686,1.033c0.599,0.517,1.196,1.197,1.196,2.04
			c0,0.653-0.108,1.658-0.978,1.658c-1.006,0-0.98-1.278-1.061-1.957c-1.685,0.435-3.317,1.087-4.921,1.794l-0.817-2.42
			c0.381-0.162,0.762-0.354,1.142-0.57c0.762-0.463,2.556-3.48,2.965-4.433c-1.251,0.435-2.475,0.979-3.672,1.495l-0.679-2.284
			c0.326-0.136,0.571-0.271,0.843-0.489c0.68-0.598,2.176-4.459,2.529-5.547c0.19-0.544,0.354-1.033,0.408-1.604
			c0.027-0.082,0-0.381,0.136-0.381c0.381,0,2.882,1.469,2.882,1.902c0,0.191-0.761,0.436-0.898,0.462
			c-1.304,2.067-2.42,3.753-3.888,5.711h0.707c0.68,0,1.36,0,2.04-0.055c0.326-0.652,0.734-1.55,1.006-2.229
			c0.081-0.163,0.217-0.979,0.38-0.979c0.299,0,2.176,1.469,2.366,1.658c0.135,0.164,0.19,0.218,0.19,0.408
			s-0.815,0.381-0.952,0.435C84.543,116.604,82.83,118.753,81.035,120.9z M80.247,124.681c0.571,0.814,0.815,2.338,0.815,3.316
			c0,0.925-0.327,2.257-1.469,2.257c-0.707,0-1.06-0.217-1.06-0.924c0-0.626,0.163-0.843,0.462-1.359
			c0.245-0.382,0.435-0.789,0.626-1.197c0.218-0.49,0.327-0.979,0.327-1.495c0-0.163-0.137-0.735,0.108-0.735
			C80.137,124.543,80.191,124.626,80.247,124.681z M81.932,124.137c0.3,0,1.006,1.033,1.17,1.251
			c0.434,0.597,0.679,1.277,0.679,2.038c0,0.625-0.353,1.414-1.06,1.414c-0.626,0-0.816-0.516-0.816-1.061
			c0-0.625,0.163-1.251,0.163-1.876c0-0.38,0-0.788-0.108-1.169c-0.055-0.136-0.137-0.326-0.137-0.49
			C81.823,124.19,81.878,124.137,81.932,124.137z M84.924,124.109c0.679,0.517,1.386,1.414,1.386,2.311
			c0,0.57-0.38,1.169-1.006,1.169c-0.217,0-0.436-0.026-0.571-0.19c-0.353-0.38-0.299-2.12-0.544-2.772
			c-0.081-0.272-0.516-1.034-0.516-1.17C84.053,123.402,84.705,123.918,84.924,124.109z M88.268,127.291
			c0,0.979-0.408,2.691-1.631,2.691c-0.599,0-1.17-0.219-1.17-0.896c0-0.708,1.06-1.66,1.469-2.285
			c0.216-0.354,0.325-0.979,0.38-1.388c0.027-0.107,0.027-0.761,0.19-0.761C88.024,124.652,88.268,126.883,88.268,127.291z
			 M91.64,110.648h3.915c0.109-0.135,0.68-0.924,0.925-0.924c0.299,0,2.012,1.278,2.012,1.522c0,0.245-0.572,0.626-0.761,0.762
			v8.429c0,0.652,0.081,1.36,0.108,2.014c-0.708,0.244-1.414,0.434-2.121,0.598l0.082-1.279h-6.064v0.816
			c-0.681,0.272-1.387,0.463-2.121,0.599c0.055-0.762,0.164-1.578,0.164-2.339v-9.571c0-0.245-0.028-0.489-0.082-0.707
			c-0.027-0.218-0.245-0.626-0.245-0.789c0-0.081,0-0.162,0.109-0.162c0.407,0,1.767,0.76,2.175,1.006l0.761,0.026
			c0.436-1.032,0.789-2.147,0.898-3.263c0-0.136,0-0.569,0.163-0.569c0.408,0,2.611,1.113,2.611,1.439
			c0,0.273-0.625,0.462-0.817,0.518C92.781,109.398,92.237,110.051,91.64,110.648z M91.177,129.275c0,0.733,0.571,0.626,1.116,0.626
			c0.298,0,0.597,0.026,0.896,0.026c1.305,0,1.55-1.196,1.796-2.229l0.353-1.469c0.027-0.081,0.081-0.245,0.217-0.245
			c0.109,0,0.137,0.164,0.137,0.245c0,0.571-0.028,1.143-0.028,1.741c0,1.005,0.299,1.277,1.033,1.931
			c-0.109,0.299-0.245,0.624-0.38,0.951c-0.544,1.251-2.748,1.142-3.889,1.142c-1.387,0-3.263,0.055-3.263-1.822l-0.028-5.029
			c0-0.245-0.054-0.924-0.135-1.144c-0.054-0.054-0.082-0.135-0.082-0.188c0-0.109,0.028-0.137,0.135-0.137
			c0.436,0,2.748,0.625,2.748,1.143c0,0.244-0.462,0.489-0.626,0.597V129.275z M95.8,111.711l-3.97-0.057
			c0.354,0.138,1.767,0.763,1.767,1.115c0,0.136-0.489,0.327-0.571,0.354l-0.381,0.599h0.899c0.081-0.108,0.543-0.625,0.706-0.625
			c0.272,0,1.414,1.169,1.414,1.387c0,0.19-0.408,0.381-0.544,0.462c-0.354,0.816-0.68,1.578-1.088,2.339
			c0.462,0.571,0.979,1.169,0.979,1.931c0,0.462-0.245,0.924-0.788,0.924c-0.707,0-1.006-1.061-1.223-1.604
			c-0.763,0.652-1.36,1.115-2.204,1.659c-0.108,0.055-0.597,0.381-0.707,0.381c-0.082,0-0.135-0.081-0.135-0.163
			c0-0.137,0.543-0.653,0.625-0.734c0.68-0.734,1.278-1.551,1.767-2.42c-0.271-0.57-0.543-0.733-1.06-1.114
			c-0.163,0.217-1.115,1.468-1.332,1.468c-0.082,0-0.11-0.055-0.11-0.109c0-0.081,0.056-0.189,0.082-0.244
			c0.354-0.844,0.626-1.659,0.898-2.529c0.353-1.032,0.544-1.984,0.625-3.073h-1.442l-0.271,0.245v8.919H95.8V111.711z
			 M92.862,116.386c0.246-0.544,0.462-1.113,0.654-1.685H92.13l-0.681,1.115C91.938,115.979,92.401,116.168,92.862,116.386z
			 M91.83,122.451c0.3,0,0.761,0.407,0.979,0.598c0.679,0.652,1.495,1.658,1.495,2.638c0,0.842-0.489,1.439-1.332,1.439
			c-0.517,0-0.679-0.543-0.679-0.978c0-0.381,0.026-0.735,0.026-1.115c0-0.353-0.054-1.196-0.189-1.523
			c-0.082-0.243-0.463-0.842-0.463-0.979C91.667,122.451,91.748,122.451,91.83,122.451z M95.99,124.137
			c0.136,0,0.272,0.082,0.381,0.162c1.36,0.789,2.963,2.148,2.963,3.861c0,0.707-0.407,1.414-1.195,1.414
			c-0.219,0-0.436-0.055-0.599-0.19c-0.19-0.163-0.299-0.462-0.327-0.707c-0.244-1.984-0.299-2.692-1.413-4.351
			C95.8,124.163,95.908,124.137,95.99,124.137z"/>
		<path fill="#3D3A39" d="M108.658,123.945c0.652,0.735,1.006,2.558,1.006,3.508c0,0.544-0.109,1.006-0.354,1.496
			c-0.217,0.462-0.625,0.598-1.115,0.598c-0.761,0-1.005-0.271-1.005-1.006c0-0.843,0.652-1.714,0.951-2.475
			c0.273-0.653,0.245-1.44,0.245-2.148c0-0.054,0.054-0.081,0.109-0.081C108.576,123.837,108.631,123.918,108.658,123.945z
			 M109.909,114.402c0.761,0,1.522,0,2.284-0.055c0.353-0.544,0.679-1.088,0.952-1.687c0.135-0.325,0.407-0.733,0.434-1.114
			c0.028-0.055,0.028-0.218,0.11-0.218c0.407,0,2.365,1.469,2.474,1.658c0.054,0.109,0.054,0.163,0.054,0.272
			c0,0.163-0.815,0.299-0.924,0.299c-0.979,1.195-1.877,2.446-2.855,3.617c-0.788,0.896-1.605,1.767-2.393,2.637
			c1.25,0,2.501-0.082,3.753-0.163c-0.109-0.544-0.272-1.087-0.571-1.55c-0.082-0.109-0.355-0.463-0.355-0.571
			c0.055-0.108,0.11-0.108,0.164-0.108c0.516,0,1.904,1.143,2.257,1.55c0.217,0.245,0.408,0.489,0.544,0.788
			c0.163,0.272,0.245,0.6,0.245,0.925c0,0.599-0.327,1.225-1.034,1.225c-0.952,0-0.979-0.87-1.142-1.604
			c-1.713,0.652-3.399,1.304-5.004,2.148l-1.06-2.693c0.381-0.163,0.761-0.38,1.088-0.625c0.598-0.462,2.42-3.263,2.855-3.942
			c-1.278,0.327-2.393,0.789-3.562,1.358l-0.816-2.229c0.245-0.163,0.49-0.3,0.734-0.49c0.381-0.271,0.654-0.707,0.87-1.114
			c0.463-0.87,1.306-2.61,1.605-3.508l0.49-1.523c0.053-0.189,0.217-1.087,0.244-1.113c0.163-0.055,0.68,0.245,0.815,0.299
			c0.381,0.19,2.068,1.033,2.068,1.36c0,0.217-0.654,0.38-0.789,0.406c-1.333,1.985-2.693,3.916-4.188,5.766H109.909z
			 M112.247,124.979c0.436,0.462,0.87,1.033,0.87,1.713c0,0.625-0.272,1.387-1.033,1.387c-0.299,0-0.571-0.108-0.761-0.326
			c-0.191-0.245-0.272-0.544-0.299-0.844c-0.081-1.06-0.081-1.876-0.625-2.827c-0.11-0.164-0.273-0.381-0.273-0.599
			C110.616,123.402,111.948,124.652,112.247,124.979z M114.396,123.945c0.788,0.544,1.767,1.523,1.767,2.558
			c0,0.598-0.462,1.195-1.088,1.195c-0.272,0-0.517-0.109-0.707-0.326c-0.19-0.218-0.326-0.517-0.354-0.815
			c-0.135-1.144-0.135-1.795-0.761-2.801c-0.108-0.137-0.299-0.381-0.299-0.571C113.28,123.104,114.178,123.782,114.396,123.945z
			 M116.299,130.907c-0.408,0.325-2.013,1.522-2.393,1.522c-0.054,0-0.108-0.027-0.108-0.082c0-0.189,0.788-1.006,0.923-1.142
			c2.094-2.366,2.502-4.134,2.938-7.124c0.108-0.844,0.244-1.686,0.244-2.557c0-0.218-0.027-0.407-0.027-0.625
			c-0.028-0.271-0.109-0.57-0.109-0.844c0-0.108,0.028-0.163,0.136-0.163c0.544,0,2.882,1.007,2.882,1.388
			c0,0.218-0.544,0.435-0.707,0.488C119.671,125.413,119.317,128.459,116.299,130.907z M122.852,113.613
			c0,0.299-0.544,0.407-0.761,0.436c-0.653,0.761-1.332,1.576-2.067,2.256l-1.686,1.551h0.844c1.712,0,3.453-0.028,5.165-0.082
			c-0.299-0.762-0.706-1.36-1.223-1.985c-0.082-0.054-0.19-0.19-0.19-0.271c0-0.082,0.108-0.109,0.163-0.109
			c0.625,0,2.229,1.141,2.773,1.523c0.707,0.516,1.141,1.168,1.141,2.065c0,0.68-0.407,1.44-1.194,1.44
			c-0.871,0-1.116-1.196-1.334-1.821c-1.549,0.271-3.126,0.517-4.676,0.762c-1.034,0.163-2.067,0.408-3.046,0.761l-0.924-2.42
			c0.326-0.082,0.653-0.218,0.952-0.407c1.223-0.788,2.61-3.535,3.071-4.895h-3.208l-0.381,0.407l-1.033-1.469
			c0.435,0.055,0.952,0.137,1.387,0.137h8.485c0.162-0.19,0.951-1.196,1.25-1.196c0.353,0,1.223,1.088,1.386,1.305
			c0.137,0.11,0.381,0.381,0.381,0.571c0,0.164-0.217,0.245-0.354,0.245h-6.58C121.573,112.661,122.852,113.232,122.852,113.613z
			 M119.48,106.734c0.164,0,1.006,0.353,1.197,0.406c1.006,0.383,2.229,1.334,2.229,2.529c0,0.706-0.38,1.469-1.169,1.469
			c-1.386,0-1.278-1.714-1.496-2.691c-0.135-0.6-0.462-0.898-0.87-1.36c-0.027-0.026-0.136-0.136-0.136-0.19
			C119.235,106.788,119.399,106.734,119.48,106.734z M123.314,129.167c0,0.706,0.843,0.597,1.359,0.597c0.273,0,0.544,0,0.789-0.081
			c0.924-0.271,1.251-2.392,1.414-3.1c0.028-0.08,0.082-0.245,0.217-0.245c0.11,0,0.137,0.165,0.137,0.245v1.305
			c0,1.062,0.353,1.388,1.196,1.933c-0.707,1.875-1.278,2.174-3.263,2.174c-0.816,0-3.018,0.082-3.562-0.652
			c-0.217-0.326-0.272-0.733-0.272-1.115v-8.973c0-0.272,0-0.543-0.082-0.816c-0.026-0.189-0.217-0.57-0.217-0.733
			c0-0.136,0.055-0.19,0.191-0.19c0.407,0,2.936,0.979,2.936,1.305c0,0.244-0.68,0.545-0.843,0.652V129.167z"/>
		<path fill="#3D3A39" d="M152.841,111.139c0.136-0.136,1.06-1.169,1.279-1.169c0.353,0,1.223,1.087,1.468,1.332
			c0.135,0.136,0.299,0.353,0.299,0.571c0,0.244-0.245,0.325-0.463,0.325h-14.22l-0.408,0.354
			c-0.245,3.427-0.027,10.85-1.088,13.596c-0.49,1.224-1.278,2.528-2.121,3.508c-0.245,0.271-1.55,1.713-1.795,1.713
			c-0.082,0-0.136-0.109-0.136-0.19c0-0.19,0.409-0.733,0.517-0.897c0.408-0.599,0.68-1.306,0.979-1.957
			c0.544-1.115,0.815-2.34,0.952-3.563c0.244-2.394,0.298-4.759,0.381-7.18c0.026-1.087,0.054-2.174,0.054-3.234
			c0-0.626-0.054-1.251-0.054-1.877c0-0.489,0-0.924-0.055-1.414c-0.054-0.299-0.326-1.006-0.326-1.142
			c0-0.082,0.054-0.108,0.163-0.108c0.354,0,2.746,1.115,3.317,1.332H152.841z M145.5,118.942c0,0.244-0.326,0.436-0.517,0.544
			v9.027c0,1.033,0.082,2.095,0.109,3.127c-0.762,0.218-1.605,0.354-2.393,0.544c0.055-0.843,0.163-1.714,0.163-2.528v-9.653
			c-0.679,0.815-1.332,1.632-2.013,2.42c-0.053,0.055-0.107,0.082-0.162,0.082c-0.081,0-0.163-0.027-0.163-0.108
			c0-0.19,1.06-2.311,1.142-2.529c0.598-1.305,1.224-2.61,1.632-3.997c0.326-1.061,0.679-2.175,0.733-3.29
			c0.056-0.055,0.109-0.081,0.163-0.081c0.273,0,2.72,1.168,2.72,1.604c0,0.354-0.598,0.571-0.816,0.68
			c-0.653,1.115-1.169,2.284-1.849,3.372C144.493,118.263,145.5,118.643,145.5,118.942z M147.621,110.976
			c-0.49,0-0.952-0.354-1.142-0.788c-0.327-0.789-0.381-1.605-0.843-2.313c-0.191-0.271-0.354-0.516-0.598-0.734
			c-0.082-0.08-0.245-0.189-0.245-0.324c0-0.11,0.163-0.137,0.272-0.137c0.462,0,1.74,0.544,2.175,0.733
			c0.978,0.409,1.55,1.143,1.55,2.229C148.79,110.296,148.328,110.976,147.621,110.976z M150.965,114.646
			c0-0.571-0.326-1.088-0.326-1.387c0-0.109,0.109-0.137,0.217-0.137c0.381,0,2.149,0.599,2.529,0.762
			c0.163,0.082,0.381,0.218,0.381,0.408s-0.434,0.461-0.572,0.571v3.262h0.545c0.136-0.136,0.788-0.896,1.06-0.896
			c0.217,0,0.436,0.245,0.571,0.381c0.163,0.163,1.033,0.897,1.033,1.224c0,0.163-0.135,0.271-0.271,0.271h-2.938v10.469
			c0,0.354,0,0.951-0.162,1.278c-0.489,1.033-2.203,1.277-3.182,1.44c-0.054-0.517-0.19-1.305-0.625-1.658
			c-0.272-0.218-1.441-0.626-1.441-0.762c0-0.135,0.19-0.19,0.272-0.19c0.652,0,1.305,0.163,1.985,0.163
			c0.788,0,0.924-0.326,0.924-1.06v-9.681h-3.507l-0.49,0.354l-0.951-1.495c0.543,0.055,1.142,0.162,1.685,0.162h3.263V114.646z
			 M146.805,123.267c0-0.436,0-0.979-0.163-1.359c-0.109-0.272-0.598-1.007-0.598-1.17c0-0.081,0.136-0.108,0.19-0.108
			c0.489,0,1.686,0.978,2.094,1.332c0.462,0.407,0.735,0.924,0.735,1.522c0,0.761-0.436,1.632-1.307,1.632
			C146.723,125.115,146.805,123.974,146.805,123.267z"/>
	</g>
	<linearGradient id="SVGID_1_" gradientUnits="userSpaceOnUse" x1="100.7324" y1="18.9063" x2="256.3692" y2="227.0358">
		<stop  offset="0" style="stop-color:#008E90"/>
		<stop  offset="0.4532" style="stop-color:#73BD59"/>
		<stop  offset="1" style="stop-color:#BE9C59"/>
	</linearGradient>
	<polygon fill="url(#SVGID_1_)" points="64.204,143.014 0,143.014 0,73.458 12.609,73.458 12.609,64.643 20.561,64.643 
		29.607,60.657 36.258,63.857 46.847,63.857 46.666,69.498 64.765,69.498 68.692,63.745 73.483,69.63 104.457,69.63 108.999,63.938 
		113.51,69.762 131.81,69.762 131.81,66.627 150.57,66.627 150.57,30.283 149.181,30.207 149.181,20.398 151.01,20.398 
		151.01,15.613 156.576,15.613 165.938,6.249 166.112,0 169.125,0 169.122,6.249 178.487,15.613 184.054,15.613 184.054,20.398 
		185.883,20.398 185.883,30.207 184.492,30.283 184.492,66.627 203.254,66.627 203.254,69.762 221.553,69.762 226.065,63.94 
		230.608,69.63 261.579,69.63 266.372,63.746 270.299,69.498 288.396,69.498 288.216,63.857 298.807,63.857 305.458,60.657 
		314.503,64.643 322.455,64.643 322.455,73.458 335.064,73.458 335.064,142.356 327.719,142.356 327.719,80.804 315.109,80.804 
		315.109,71.988 312.956,71.988 305.594,68.744 300.483,71.203 295.801,71.203 295.982,76.845 266.419,76.845 265.852,76.014 
		265.068,76.976 227.074,76.976 226.151,75.82 225.155,77.107 195.909,77.107 195.909,73.973 177.147,73.973 177.147,27.744 
		176.708,27.744 176.708,22.958 175.445,22.958 167.532,15.046 159.619,22.958 158.356,22.958 158.356,27.744 157.916,27.744 
		157.916,73.973 139.155,73.973 139.155,77.107 109.908,77.107 108.913,75.822 107.993,76.976 69.992,76.976 69.211,76.015 
		68.644,76.845 39.08,76.845 39.262,71.203 34.582,71.203 29.471,68.744 22.107,71.988 19.955,71.988 19.955,80.804 7.346,80.804 
		7.346,135.667 64.204,135.667 	"/>
	<g>
		<g>
			<g>
				<defs>
					<rect id="SVGID_2_" x="26.133" y="83.143" width="41.116" height="23.981"/>
				</defs>
				<clipPath id="SVGID_3_">
					<use xlink:href="#SVGID_2_"  overflow="visible"/>
				</clipPath>
				<rect x="26.133" y="83.143" clip-path="url(#SVGID_3_)" fill="#C41630" width="41.116" height="23.981"/>
				<rect x="26.133" y="83.143" clip-path="url(#SVGID_3_)" fill="#1D295D" width="17.986" height="11.986"/>
				<path clip-path="url(#SVGID_3_)" fill="#FFFFFF" d="M36.328,89.137l-1.2,4.494l-1.201-4.494l1.201-4.5 M35.128,90.332
					l4.496-1.195l-4.496-1.201l-4.498,1.201"/>
				<path clip-path="url(#SVGID_3_)" fill="#FFFFFF" d="M36.167,89.738l-3.289,3.295l1.21-4.494l3.29-3.299 M34.529,90.178
					l4.494,1.205l-3.295-3.285l-4.494-1.209"/>
				<path clip-path="url(#SVGID_3_)" fill="#FFFFFF" d="M35.728,90.178l-4.494,1.205l3.295-3.285l4.494-1.209 M34.089,89.738
					l3.29,3.295l-1.211-4.494l-3.289-3.299"/>
				<g clip-path="url(#SVGID_3_)">
					<defs>
						<rect id="SVGID_4_" x="26.133" y="83.143" width="41.116" height="23.981"/>
					</defs>
					<clipPath id="SVGID_5_">
						<use xlink:href="#SVGID_4_"  overflow="visible"/>
					</clipPath>
					<path clip-path="url(#SVGID_5_)" fill="#1D295D" d="M35.128,86.592c1.406,0,2.544,1.141,2.544,2.545
						c0,1.406-1.138,2.549-2.544,2.549c-1.408,0-2.549-1.143-2.549-2.549C32.579,87.732,33.72,86.592,35.128,86.592z"/>
					<circle clip-path="url(#SVGID_5_)" fill="#FFFFFF" cx="35.128" cy="89.136" r="2.247"/>
				</g>
			</g>
		</g>
	</g>
</g>
</svg>
